<?xml version="1.0" encoding="UTF-8" standalone="no"?>
<svg
   xmlns:dc="http://purl.org/dc/elements/1.1/"
   xmlns:cc="http://creativecommons.org/ns#"
   xmlns:rdf="http://www.w3.org/1999/02/22-rdf-syntax-ns#"
   xmlns:svg="http://www.w3.org/2000/svg"
   xmlns="http://www.w3.org/2000/svg"
   id="svg112"
   xml:space="preserve"
   enable-background="new 0 0 595.28 841.89"
   viewBox="0 0 595.28 841.89"
   height="841.89px"
   width="595.28px"
   y="0px"
   x="0px"
   version="1.1"><metadata
   id="metadata118"><rdf:RDF><cc:Work
       rdf:about=""><dc:format>image/svg+xml</dc:format><dc:type
         rdf:resource="http://purl.org/dc/dcmitype/StillImage" /></cc:Work></rdf:RDF></metadata><defs
   id="defs116" />
<g
   id="Layer_2">
	<path
   id="path2"
   d="M429.851,440.727c-2.35-1.887-4.742-3.725-6.708-6.037c-0.813-0.791-1.682-1.52-2.625-2.154   c-10.252-9.469-20.504-18.936-30.756-28.405c-0.778-0.896-1.943-1.395-2.551-2.469c-2.347-1.898-4.739-3.746-6.714-6.059   c-0.81-0.789-1.664-1.525-2.615-2.141c-10.255-9.472-20.51-18.946-30.763-28.417c-0.827-0.788-1.706-1.513-2.643-2.166   c-10.001-9.227-20.003-18.454-30.004-27.683c-0.981-0.797-1.868-1.69-2.683-2.654c-2.358-2.283-5.264-3.961-7.318-6.582   c-0.82-0.788-1.686-1.52-2.633-2.154c-10.004-9.231-20.01-18.463-30.014-27.694c-0.973-0.8-1.852-1.69-2.675-2.64   c-2.362-2.289-5.267-3.974-7.325-6.598c-0.814-0.787-1.67-1.523-2.623-2.143c-6.916-6.381-13.832-12.762-20.748-19.145   c-1.869,0.826-0.879,2.475-0.882,3.669c-0.067,36.906-0.067,73.813-0.034,110.718c0.004,3.651-0.354,7.318,0.272,10.957   c-0.353,2.758,0.006,5.499,0.206,8.245c0.531,1.471-0.133,3.074,0.501,4.533c0.7,12.373,2.394,24.504,9.847,34.926   c3.002,4.197,6.428,8.113,11.301,10.352c1.135,0.447,2.207,1,3.094,1.859c3.887,2.258,7.934,4.076,12.479,4.516   c1.146,1.576,0.723,3.234,0.256,4.895c-1.55-0.021-3.099-0.043-4.646-0.063c-1.451-0.652-3.057,0.053-4.516-0.521   c-1.34-0.063-2.682-0.125-4.021-0.188c-1.686-0.709-3.531,0.113-5.221-0.549l-4.705-0.164c-1.934-0.742-4.025,0.164-5.959-0.568   c-1.803-0.047-3.605-0.094-5.408-0.141c-2.895-0.814-5.913,0.234-8.807-0.584c-3.322-0.314-6.646-0.301-9.969-0.008   c-2.891,0.838-5.91-0.229-8.8,0.592c-1.808,0.053-3.615,0.105-5.422,0.158c-1.465,0.631-3.093-0.104-4.555,0.549   c-1.324,0.053-2.647,0.105-3.971,0.16c-1.459,0.639-3.085-0.107-4.542,0.549c-1.093,0.061-2.186,0.123-3.279,0.182   c-1.226,0.549-2.611-0.059-3.832,0.527c-1.289,0.02-2.577,0.039-3.865,0.057c-0.568-1.65-0.897-3.293,0.192-4.879   c8.572-1.979,16.119-6.086,21.885-12.586c5.252-5.92,7.848-13.4,9.232-21.209c0.475-2.676,0.891-5.363,1.334-8.045   c0.684-1.156-0.027-2.521,0.546-3.693c0.055-0.9,0.108-1.799,0.164-2.699c0.719-1.402-0.039-2.98,0.521-4.402   c0.069-2.285,0.139-4.572,0.208-6.857c0.811-4.799-0.174-9.664,0.52-14.466c-0.002-4.515-0.002-9.029-0.004-13.543   c-0.416-1.271-0.211-2.58-0.211-3.869c-0.013-37.675-0.006-75.349-0.031-113.022c0-1.265,0.394-2.601-0.391-3.797l-0.045-0.062   c-0.828-0.897-2.039-1.392-2.661-2.509c-7.393-6.691-14.732-13.445-22.2-20.051c-4.2-3.715-8.728-7.029-12.887-10.826   c-5.309-4.847-8.258-11.19-12.014-17.033c-1.87-2.91-3.534-5.954-5.475-9.249h3.942c1.907,0.772,3.979-0.159,5.889,0.571   c1.352,0.047,2.704,0.094,4.056,0.14c2.147,0.813,4.465-0.224,6.611,0.61c2.104,1.681,4.209,3.361,6.313,5.043   c1.281,0.625,2.167,1.66,2.927,2.824c2.356,2.133,4.711,4.264,7.067,6.396c1.162,0.656,2.03,1.638,2.89,2.627   c2.288,2.283,4.405,4.749,7.097,6.597c0.955,0.78,2.092,1.356,2.761,2.457c9.917,9.675,20.108,19.046,30.567,28.13   c0.98,0.456,1.663,1.219,2.2,2.133c2.597,2.362,5.192,4.727,7.789,7.088c1.151,0.662,2.019,1.64,2.885,2.615   c2.287,2.289,4.406,4.76,7.103,6.61c0.947,0.781,2.074,1.36,2.757,2.44c2.093,2.104,3.957,4.455,6.495,6.082   c0.932,0.795,2.063,1.367,2.746,2.444c6.742,6.939,14.011,13.308,21.333,19.617c0.971,0.466,1.652,1.226,2.194,2.131   c2.597,2.365,5.195,4.729,7.792,7.095c1.143,0.664,2.008,1.637,2.881,2.603c2.291,2.291,4.399,4.778,7.111,6.62   c0.936,0.785,2.054,1.365,2.749,2.426c9.941,9.658,20.111,19.068,30.575,28.16c0.966,0.466,1.644,1.229,2.192,2.124   c2.602,2.364,5.201,4.731,7.801,7.097c0.976,0.77,2.124,1.346,2.774,2.479c2.082,2.098,3.967,4.404,6.474,6.045   c0.964,0.783,2.123,1.351,2.767,2.49c10.198,9.854,20.587,19.502,31.303,28.795c0.951,0.479,1.631,1.235,2.185,2.122   c2.601,2.369,5.2,4.736,7.802,7.104c0.97,0.77,2.11,1.348,2.77,2.467c2.078,2.107,3.97,4.412,6.48,6.057   c0.955,0.781,2.096,1.355,2.762,2.461c9.922,9.664,20.104,19.045,30.566,28.124c0.529,0.287,1.057,0.639,1.052,1.295   c-0.048,6.9,0.505,13.811-0.294,20.699c-6.779,1.307-9.304-4.801-13.607-7.809c-1-0.777-1.875-1.684-2.709-2.633   c-2.104-2.564-5.323-3.895-7.295-6.604C431.623,442.316,430.44,441.826,429.851,440.727"
   fill="#EE3331" />
	<path
   id="path4"
   d="M102.913,260.426c-1.08-5.468-6.121-5.085-9.842-6.457c-2.267-0.835-4.87-0.715-7.23-1.362   c-1.27-0.348-3.136-0.66-2.795-2.828c0.302-1.922,1.949-1.843,3.235-1.892c3.284-0.127,6.576-0.036,9.865-0.032   c2.43,0.754,4.975-0.125,7.413,0.521c10.418,0.04,20.837,0.079,31.256,0.12c0.829,0.003,1.66-0.03,2.487,0.009   c1.455,0.067,2.871,0.301,3.197,2.063c0.321,1.728-0.698,2.709-2.177,3.159c-9.936,3.029-15.23,10.478-19.53,19.38   c-13.647,28.26-27.629,56.357-41.454,84.53c-11.363,23.157-22.709,46.322-34.006,69.512c-2.104,4.32-3.808,8.836-6.5,12.855   c-3.093,4.617-5.675,4.609-8.583-0.043c-5.954-9.525-9.757-20.127-14.987-30.004c-7.613-14.379-14.338-29.19-21.518-43.773   c-7.747-15.733-15.453-31.501-22.974-47.353c-6.321-13.324-13.094-26.434-19.589-39.676c-2.834-5.779-5.569-11.556-9.452-16.785   c-4.327-5.827-10.413-7.941-17.039-8.955c-2.008-0.307-3.956-0.947-6.012-1.067c-1.608-0.093-2.842-0.903-2.646-2.872   c0.198-2.005,1.545-2.477,3.22-2.363c3.283,0.225,6.557,0.573,9.84,0.787c1.404,0.092,2.823-0.023,4.235-0.045   c6.001,0.674,12.022,0.254,18.03,0.256c6.009,0,12.03,0.414,18.031-0.254c1.102-0.065,2.204-0.13,3.306-0.195   c1.196-0.534,2.559,0.121,3.74-0.522c1.77,0.009,3.561-0.141,5.301,0.091c0.925,0.123,2.162,0.439,2.296,1.807   c0.12,1.22-0.001,2.271-1.3,2.981c-1.492,0.814-2.939,1.642-4.621,2.044c-5.519,1.323-6.761,3.012-6.297,8.629   c0.533,6.44,3.441,12.119,6.183,17.76c10.771,22.162,21.752,44.222,32.633,66.33c8.898,18.08,17.763,36.177,26.639,54.268   c0.05,0.102,0.011,0.258,0.075,0.342c1.13,1.477,1.164,4.205,3.606,4.158c2.546-0.051,3.561-2.42,4.487-4.381   c5.598-11.851,11.559-23.524,16.91-35.5c5.199-11.641,11.152-22.94,16.564-34.488c5.818-12.417,11.604-24.857,16.998-37.461   c3.856-9.014,7.425-18.189,9.019-27.964C103.387,263.977,103.412,262.2,102.913,260.426"
   fill="#FFFFFF" />
	<path
   id="path6"
   d="M621.621,249.804c8.475,1.178,16.54,3.842,24.514,6.813c0.802,0.299,1.552,0.479,2.381,0.45   c1.253,0.48,2.505,0.531,3.755-0.016c0.616-0.277,1.295-0.467,1.84-0.846c4.655-3.236,6.072-2.855,8.13,2.25   c0.651,1.674-0.188,3.506,0.544,5.17c0.455,8.199,2.775,16.096,3.934,24.182c0.198,1.386,0.292,2.804,0.659,4.146   c0.655,2.392,0.021,4.382-2.158,5.33c-2.385,1.038-3.936-0.478-5.045-2.545c-2-3.731-3.436-7.759-5.936-11.228   c-6.476-8.982-15.333-14.938-25.265-19.308c-7.448-3.278-15.4-4.952-23.501-5.817c-5.087-0.492-10.174-0.521-15.261,0.008   c-14.41,0.602-28.228,10.41-31.357,21.002c-2.89,9.785-1.25,18.717,5.352,26.634c6.236,7.481,14.519,11.416,23.617,14.306   c17.08,5.426,34.785,8.959,51.206,16.373c13.034,5.887,25.105,13.289,31.531,26.807c7.669,16.131,5.346,31.725-4.551,46.133   c-5.666,8.25-13.562,14.133-22.535,18.731c-10.059,5.154-20.729,7.822-31.806,9.287c-1.242,0.475-2.616-0.078-3.845,0.496   c-6.172,0.002-12.343,0.004-18.516,0.006c-1.249-0.57-2.646-0.018-3.904-0.521c-9.844-0.793-19.44-2.85-28.766-6.025   c-4.157-1.416-8.529-2.756-10.973-7.018c-1.816-3.17-2.235-6.805-3.313-10.198c-2.396-7.551-5.168-15-6.92-22.765   c-0.429-1.896-0.141-3.684-0.296-5.512c-0.087-1.021-0.559-2.592,1.029-3.032c1.599-0.444,3.213-0.57,4.579,0.889   c1.481,1.581,2.345,3.5,3.046,5.442c5.888,16.332,18.145,26.251,33.331,33.195c7.25,3.316,14.778,5.688,22.867,5.74   c4.945,0.479,9.893,0.477,14.838,0.002c11.262-0.527,21.025-4.832,30.006-11.465c6.141-4.537,10.303-10.25,12.553-17.521   c2.964-9.58,0.665-17.987-5.319-25.665c-6.166-7.912-15.044-11.359-24.101-14.354c-10.503-3.476-21.092-6.695-31.663-9.962   c-14.409-4.453-28.54-9.484-40.778-18.674c-7.528-5.651-12.243-13.121-14.777-22.145c-0.835-2.975-0.471-5.977-0.963-8.932   c-0.332-1.176-0.342-2.352,0.008-3.526c0.089-12.297,5.354-22.284,14.417-30.122c10.064-8.705,22.164-13.24,35.219-15.338   c1.739-0.279,3.477-0.572,5.214-0.859c1.261-0.51,2.664,0.045,3.916-0.527c6.386,0.001,12.771,0.002,19.157,0.003   C618.964,249.849,620.364,249.289,621.621,249.804"
   fill="#FFFFFF" />
	<path
   id="path8"
   d="M456.692,248.928c0.023,25.538,0.061,51.077,0.072,76.617c0.012,28.497,0.023,56.993-0.09,85.49   c-0.003,0.932,1.597,3.186-1.314,3.135c-3.858-3.582-7.716-7.166-11.574-10.75c-0.687-0.598-1.329-1.24-1.951-1.902   c-2.133-2.543-5.322-3.92-7.307-6.625c-0.82-0.801-1.72-1.504-2.644-2.18c-10.238-9.459-20.477-18.919-30.715-28.379   c-0.708-0.592-1.36-1.24-1.973-1.93c-2.447-2.684-5.771-4.405-8.019-7.308c-0.82-0.798-1.713-1.507-2.643-2.171   c-2.207-2.119-4.413-4.236-6.62-6.355c-0.808-0.791-1.659-1.527-2.613-2.139c-10.248-9.473-20.497-18.947-30.745-28.421   c-0.954-0.803-1.824-1.692-2.659-2.616c-9.115-8.246-18.25-16.471-27.338-24.746c-4.496-4.096-8.905-8.287-13.354-12.435   c-0.693-0.604-1.344-1.251-1.945-1.949c-2.131-2.532-5.361-3.844-7.313-6.577c-0.816-0.8-1.713-1.507-2.639-2.173   c-10.242-9.463-20.482-18.925-30.721-28.387c-0.703-0.593-1.71-1.239-2.326-1.922c-2.453-2.681-5.415-4.414-7.667-7.315   c-0.821-0.789-1.695-1.515-2.635-2.16c-2.209-2.123-4.418-4.244-6.625-6.367c-0.806-0.791-1.654-1.527-2.61-2.135l-21.489-19.896   c-0.701-0.594-1.352-1.24-1.966-1.921c-1.665-2.433-4.905-3.212-6.549-6.458c5.947,0,11.708,0.602,17.291-0.143   c8-1.07,13.658,2.092,18.727,7.723c2.41,2.678,5.405,4.828,8.135,7.217c0.963,0.467,1.639,1.23,2.192,2.121l7.813,7.096   c0.957,0.77,2.074,1.357,2.764,2.434c9.703,9.42,19.628,18.602,29.87,27.435c0.963,0.469,1.64,1.231,2.193,2.122   c2.604,2.365,5.207,4.73,7.812,7.096c0.959,0.771,2.079,1.357,2.764,2.439c9.704,9.418,19.633,18.592,29.87,27.429   c0.963,0.467,1.64,1.231,2.193,2.122c2.604,2.365,5.207,4.73,7.811,7.096c0.96,0.775,2.094,1.354,2.764,2.455   c2.097,2.098,3.963,4.439,6.5,6.064c0.93,0.791,2.045,1.369,2.745,2.422c6.489,6.729,13.566,12.818,20.625,18.927   c0.965,0.465,1.639,1.231,2.195,2.12c2.604,2.365,5.207,4.73,7.811,7.097c0.959,0.775,2.09,1.356,2.765,2.452   c2.093,2.1,3.96,4.443,6.497,6.068c0.931,0.791,2.05,1.369,2.746,2.426c6.737,6.959,14.088,13.25,21.362,19.624   c0.932,0.491,1.608,1.244,2.174,2.11c2.364,2.137,4.729,4.271,7.092,6.406c0.443,0.349,1.094,1.089,1.297,0.98   c1.223-0.645,0.564-1.877,0.566-2.824c0.039-34.199,0.041-68.398,0.011-102.598c-0.002-1.991,0.27-4.02-0.369-5.98   c-0.067-3.472-0.134-6.943-0.2-10.416c-0.565-1.715,0.166-3.554-0.505-5.259c-0.065-1.326-0.132-2.651-0.198-3.978   c-0.551-1.174,0.149-2.529-0.537-3.684c-1.608-16.291-7.848-29.826-22.731-38.224c-1.125-0.826-2.445-1.314-3.605-2.08   c-4.242-1.562-8.396-3.354-12.996-3.772c-2.523-0.229-1.602-2.398-1.723-3.893c-0.158-1.936,1.224-1.551,2.37-1.52   c0.697,0.018,1.396-0.016,2.094-0.024c1.222,0.58,2.6-0.005,3.829,0.512c1.575,0.063,3.151,0.128,4.727,0.192   c1.928,0.738,4.009-0.147,5.94,0.555c1.357,0.048,2.715,0.096,4.072,0.143c2.384,0.821,4.913-0.198,7.3,0.584   c1.801,0.045,3.601,0.092,5.401,0.138c3.377,0.807,6.858-0.22,10.235,0.588c2.612,0.294,5.226,0.304,7.839,0   c3.117-0.835,6.354,0.247,9.472-0.591c1.819-0.049,3.638-0.098,5.456-0.146c1.921-0.717,3.996,0.191,5.912-0.563   c1.583-0.055,3.166-0.109,4.75-0.163c1.697-0.651,3.545,0.155,5.237-0.542c1.334-0.059,2.668-0.117,4.001-0.176   c1.689-0.644,3.529,0.17,5.212-0.539c1.583-0.025,3.167-0.051,4.75-0.076c0.296,1.669,0.848,3.355-0.335,4.923   c-8.44,1.067-15.253,5.272-21.252,11.036c-7.77,7.462-11.64,16.834-13.258,27.279c-0.431,2.787-1.079,5.565-0.786,8.424   c-0.678,1.429,0.045,3.019-0.516,4.461c-0.065,2.283-0.132,4.566-0.198,6.849"
   fill="#EE3331" />
	<g
   id="g12">
		<path
   id="path10"
   d="M721.93,181.515c-13.336,0-24.146,10.812-24.149,24.152c0.003,13.331,10.813,24.147,24.149,24.147    c13.341,0,24.154-10.816,24.154-24.147C746.084,192.326,735.271,181.515,721.93,181.515 M721.93,225.903    c-11.172-0.027-20.216-9.062-20.233-20.236c0.018-11.172,9.062-20.219,20.233-20.237c11.18,0.018,20.217,9.064,20.236,20.237    C742.146,216.841,733.109,225.876,721.93,225.903 M728.601,208.607c-0.72-0.771-1.628-1.473-2.733-2.117    c2.22-0.319,3.88-1.099,4.996-2.334c1.112-1.231,1.668-2.792,1.668-4.686c0-1.491-0.363-2.817-1.104-3.971    c-0.73-1.163-1.709-1.969-2.934-2.42c-1.218-0.452-3.181-0.682-5.875-0.682h-10.721v25.23h5.096v-10.535h1.027    c1.176,0,2.03,0.093,2.571,0.284c0.536,0.19,1.045,0.54,1.527,1.05c0.479,0.511,1.373,1.751,2.688,3.709l3.679,5.492h6.092    l-3.082-4.921C730.283,210.742,729.317,209.375,728.601,208.607 M720.759,203.071h-3.765v-6.4h3.973    c2.062,0,3.304,0.026,3.721,0.082c0.821,0.139,1.461,0.469,1.918,0.99c0.451,0.525,0.673,1.205,0.673,2.06    c0,0.753-0.171,1.384-0.512,1.891c-0.343,0.503-0.824,0.855-1.431,1.067C724.727,202.964,723.203,203.071,720.759,203.071"
   fill="#FFFFFF" />
	</g>
	<path
   id="path14"
   d="M714.614,540.01c0.007,3.078-0.165,6.17,0.076,9.23c0.194,2.473-0.796,3.125-2.988,2.803   c-0.464-0.066-0.946-0.01-1.42-0.01c-276.857,0-553.715-0.006-830.573,0.076c-3.394,0-4.953-0.531-4.419-4.295   c0.363-2.555,0.081-5.201,0.088-7.807c1.571-1.236,3.421-0.74,5.15-0.742c41.334-0.027,82.669-0.021,124.003-0.021   c234.74,0,469.482-0.002,704.224,0.027C710.713,539.271,712.802,538.684,714.614,540.01"
   fill="#FFFFFF" />
	<rect
   id="rect16"
   height="11"
   width="839"
   fill="#FFFFFF"
   y="517.402"
   x="-125.672" />
	<path
   id="path18"
   d="M-137.679,594.363l15.768,36.199c0.382,0.904,0.737,1.344,1.065,1.316c0.272,0,0.763-0.781,1.472-2.344   l0.653-1.52l8.994-21.367c3.87-9.176,5.806-15.078,5.806-17.709c0-0.902-0.205-1.539-0.615-1.91   c-0.41-0.369-1.244-0.678-2.502-0.924c-1.531-0.295-2.283-0.67-2.256-1.125c0.027-0.508,0.479-0.762,1.357-0.762   c0.191,0,0.589,0.014,1.192,0.041c2.029,0.109,3.249,0.164,3.66,0.164h1.687l1.851-0.041h1.028l3.496-0.041   c0.548,0,0.822,0.238,0.822,0.715c0,0.393-0.287,0.688-0.861,0.885c-1.969,0.738-3.459,2.322-4.471,4.754l-1.107,2.664   l-20.385,47.748c-0.567,1.34-1.121,2.01-1.661,2.01c-0.568,0-1.148-0.686-1.743-2.053l-20.795-48.188   c-0.984-2.217-1.873-3.762-2.666-4.639c-0.793-0.875-1.873-1.436-3.24-1.682c-1.421-0.268-2.262-0.463-2.522-0.584   c-0.26-0.119-0.39-0.342-0.39-0.662c0-0.537,0.384-0.805,1.148-0.805c0.22,0,0.615,0.027,1.189,0.082   c0.465,0.055,1.846,0.082,4.143,0.082l3.896,0.041l2.748-0.041c0.574,0,1.449-0.055,2.625-0.164   c0.547-0.055,0.93-0.082,1.148-0.082c0.738,0,1.107,0.254,1.107,0.76c0,0.373-0.273,0.666-0.82,0.881   c-1.121,0.41-1.825,0.76-2.112,1.047c-0.287,0.289-0.431,0.789-0.431,1.5C-139.399,589.789-138.826,591.707-137.679,594.363z"
   fill="#FFFFFF" />
	<path
   id="path20"
   d="M-78.942,596.67v30.752c0,3.836,0.232,6.373,0.697,7.605c0.547,1.396,1.224,2.385,2.03,2.959   c0.807,0.576,2.071,0.988,3.794,1.234c1.367,0.188,2.051,0.521,2.051,1.004c0,0.643-0.424,0.965-1.271,0.965   c-0.41,0-0.93-0.047-1.559-0.137c-0.848-0.121-2.297-0.184-4.348-0.184l-5.947-0.09l-4.84,0.287   c-0.793,0.082-1.449,0.123-1.969,0.123c-0.738,0-1.107-0.281-1.107-0.842c0-0.48,0.424-0.789,1.271-0.922   c2.078-0.355,3.418-1.076,4.02-2.156c0.602-1.082,0.902-3.361,0.902-6.84v-35.164c0-3.395-0.39-5.682-1.169-6.859   s-2.44-1.973-4.983-2.383c-0.848-0.16-1.285-0.482-1.313-0.963c-0.027-0.59,0.369-0.883,1.189-0.883   c0.219,0,0.465,0.016,0.738,0.045c1.996,0.244,4.648,0.365,7.957,0.365c2.023,0,3.76-0.047,5.209-0.137l2.748-0.229   c0.52-0.029,0.861-0.045,1.025-0.045c0.738,0,1.107,0.254,1.107,0.762c0,0.482-0.355,0.844-1.066,1.084l-2.133,0.822   C-77.931,587.613-78.942,590.889-78.942,596.67z"
   fill="#FFFFFF" />
	<path
   id="path22"
   d="M-46.909,583.604c2.926,0,5.4,0.424,7.424,1.271l2.83,1.189c0.246,0.109,0.492,0.164,0.738,0.164   c0.328,0,0.656-0.137,0.984-0.41l0.574-0.492c0.082-0.109,0.232-0.164,0.451-0.164c0.684-0.027,1.025,0.643,1.025,2.01   c0,0.465,0.178,1.846,0.533,4.143l0.656,4.225c0.137,0.902,0.205,1.463,0.205,1.682c0,0.848-0.293,1.271-0.877,1.271   c-0.446,0-0.893-0.658-1.338-1.977c-0.981-2.963-2.978-5.404-5.99-7.324c-3.012-1.92-6.372-2.881-10.079-2.881   c-2.943,0-5.404,0.869-7.381,2.607c-1.976,1.738-2.964,3.906-2.964,6.508c0,2.299,0.642,4.283,1.926,5.953   c1.118,1.424,2.341,2.465,3.665,3.121c1.324,0.658,4.581,1.848,9.77,3.572c10.104,3.307,15.155,8.73,15.155,16.271   c0,5.109-1.859,9.291-5.578,12.543s-8.49,4.877-14.314,4.877c-2.105,0-4.423-0.301-6.952-0.902s-4.382-1.299-5.558-2.092   c-0.492-0.328-0.82-0.678-0.984-1.047s-0.41-1.318-0.738-2.85c-0.055-0.219-0.396-1.463-1.025-3.732   c-0.711-2.461-1.066-4.211-1.066-5.25c0-0.82,0.279-1.217,0.837-1.189c0.501,0.027,0.947,0.699,1.337,2.016   c0.982,3.4,3.054,6.252,6.218,8.557c3.163,2.303,6.599,3.455,10.308,3.455c3.763,0,6.946-1.109,9.551-3.326   s3.906-4.912,3.906-8.088c0-3.037-1.201-5.596-3.604-7.676c-1.229-1.068-4.779-2.588-10.649-4.559   c-6.063-2.049-10.357-4.316-12.883-6.803c-2.526-2.486-3.789-5.711-3.789-9.674c0-4.426,1.647-8.033,4.942-10.82   S-52.104,583.604-46.909,583.604z"
   fill="#FFFFFF" />
	<path
   id="path24"
   d="M27.288,617.047v-21.229c0-3.416-0.492-5.895-1.477-7.439c-0.984-1.543-2.652-2.424-5.004-2.643   c-0.793-0.08-1.189-0.375-1.189-0.881c0-0.59,0.272-0.869,0.818-0.842c0.601,0.027,1.473,0.137,2.618,0.328   c1.036,0.164,2.276,0.246,3.723,0.246c3.054,0,4.936-0.041,5.645-0.123c0.955-0.082,1.555-0.123,1.8-0.123   c0.518,0,0.777,0.24,0.777,0.721c0,0.4-0.287,0.721-0.861,0.961c-1.668,0.684-2.748,1.641-3.24,2.871s-0.738,3.555-0.738,6.973   v20.303c0,7.465-1.49,13.207-4.471,17.227c-1.887,2.543-4.587,4.572-8.101,6.09s-7.267,2.277-11.259,2.277   c-4.648,0-8.832-0.902-12.551-2.707s-6.439-4.252-8.162-7.342c-1.941-3.555-2.912-8.189-2.912-13.904v-20.836l-0.082-2.338   c0-2.926-0.403-4.943-1.21-6.051s-2.427-1.838-4.86-2.193c-0.738-0.107-1.107-0.387-1.107-0.842c0-0.643,0.52-0.963,1.559-0.963   c0.684,0,1.627,0.027,2.83,0.082c1.258,0.082,2.174,0.123,2.748,0.123l3.158-0.041h3.117c0.328,0,1.094-0.055,2.297-0.164   c1.012-0.082,1.709-0.123,2.092-0.123c0.629,0,0.943,0.213,0.943,0.641c0,0.506-0.438,0.84-1.313,1   c-1.586,0.355-2.646,1.045-3.179,2.07c-0.533,1.023-0.8,2.861-0.8,5.512l0.082,2.703v20.656c0,7.051,1.095,12.076,3.285,15.082   c3.093,4.264,8.279,6.395,15.562,6.395c6.515,0,11.387-1.783,14.617-5.348C25.673,629.609,27.288,624.234,27.288,617.047z"
   fill="#FFFFFF" />
	<path
   id="path26"
   d="M67.729,619.287H52.882c-2.023,0-3.281,0.164-3.773,0.492c-0.492,0.33-1.148,1.426-1.969,3.289l-2.69,6.041   c-1.214,2.768-1.821,4.822-1.821,6.164c0,1.289,0.321,2.221,0.964,2.795c0.643,0.576,1.907,1.068,3.794,1.48   c0.82,0.16,1.244,0.48,1.271,0.961c0.027,0.453-0.354,0.68-1.145,0.68c-0.301,0-0.765-0.016-1.392-0.047l-3.928-0.23   c-1.31-0.061-2.823-0.092-4.542-0.092c-0.79,0-1.404,0.02-1.84,0.057c-1.392,0.152-2.155,0.23-2.291,0.23   c-0.736,0-1.105-0.254-1.105-0.758c0-0.449,0.232-0.742,0.697-0.883l1.518-0.453c0.547-0.164,1.285-0.826,2.215-1.99   c0.93-1.162,1.695-2.373,2.297-3.633l1.189-2.709l21.082-46.832c0.355-0.82,0.752-1.23,1.189-1.23s0.807,0.396,1.107,1.191   l17.637,45.182l0.902,2.219c1.285,3.313,2.352,5.375,3.199,6.182s2.57,1.445,5.168,1.91c0.848,0.16,1.258,0.494,1.23,1   c-0.027,0.455-0.41,0.682-1.148,0.682c-0.246,0-0.766-0.027-1.559-0.082c-1.422-0.137-3.951-0.205-7.588-0.205   c-3.801,0-6.18,0.082-7.137,0.246c-0.574,0.109-0.998,0.164-1.271,0.164c-0.711,0-1.066-0.281-1.066-0.842   c0-0.426,0.342-0.707,1.025-0.84l1.271-0.289c1.367-0.273,2.051-1.205,2.051-2.795c0-1.451-0.834-4.342-2.502-8.67l-2.051-5.426   c-0.574-1.508-1.025-2.377-1.354-2.609C70.19,619.402,69.261,619.287,67.729,619.287z M68.222,612.684l-6.439-16.242l-0.328-0.861   c-0.328-0.875-0.684-1.326-1.066-1.354c-0.191-0.027-0.41,0.232-0.656,0.779l-7.998,17.76c-0.355,0.766-0.533,1.271-0.533,1.518   c0,0.711,0.629,1.066,1.887,1.066l1.107,0.041h12.387c1.367,0,2.051-0.342,2.051-1.025c0-0.191-0.068-0.506-0.205-0.943   L68.222,612.684z"
   fill="#FFFFFF" />
	<path
   id="path28"
   d="M107.022,629.65l0.041,1.438c0,3.287,0.314,5.232,0.945,5.834c0.629,0.604,2.683,0.904,6.161,0.904   c5.12,0,9.563-0.609,13.329-1.826s6.168-2.822,7.209-4.818c0.383-0.738,0.766-1.107,1.148-1.107c0.438,0,0.643,0.271,0.615,0.816   c-0.109,1.799-0.999,3.773-2.668,5.926c-2.354,2.969-6.173,4.455-11.455,4.455c-0.876,0-1.889-0.041-3.038-0.123l-4.434-0.328   c-2.601-0.191-5.352-0.287-8.253-0.287c-3.367,0-6.187,0.164-8.457,0.492c-0.959,0.137-1.725,0.219-2.299,0.246   c-0.685,0.027-1.027-0.215-1.027-0.721c0-0.428,0.372-0.748,1.115-0.961c1.899-0.576,3.173-1.418,3.82-2.527   c0.647-1.107,0.971-2.979,0.971-5.605l0.041-1.891v-36.725c0-3.643-1.477-5.764-4.43-6.367l-1.846-0.369   c-0.656-0.133-0.984-0.4-0.984-0.801c0-0.615,0.464-0.922,1.393-0.922c0.626,0,1.485,0.055,2.578,0.164   c1.855,0.164,3.942,0.246,6.263,0.246c2.51,0,4.788-0.068,6.835-0.205c1.037-0.055,1.623-0.082,1.76-0.082   c0.655,0,0.982,0.199,0.982,0.602c0,0.588-0.396,0.975-1.189,1.162l-1.436,0.328c-2.461,0.604-3.691,3.055-3.691,7.354V629.65z"
   fill="#FFFFFF" />
	<path
   id="path30"
   d="M210.054,600.42v34.371c0,3.09-0.068,4.969-0.205,5.639s-0.52,0.992-1.148,0.965   c-0.41-0.027-0.725-0.15-0.943-0.369l-0.902-1.066l-34.576-39.539l-0.41-0.451c-0.164-0.164-0.355-0.246-0.574-0.246   c-0.52,0-0.779,0.615-0.779,1.848v27.838l-0.041,1.723l0.123,2.916c0.191,1.807,0.656,3.053,1.395,3.736   c0.738,0.686,2.188,1.191,4.348,1.52c0.902,0.107,1.354,0.455,1.354,1.043c0,0.535-0.287,0.803-0.861,0.803   c-0.383,0-0.793-0.027-1.23-0.082c-0.301-0.055-1.49-0.137-3.568-0.246l-4.184-0.205l-1.969,0.074   c-1.066,0-2.078,0.063-3.035,0.186c-0.711,0.1-1.217,0.15-1.518,0.15c-0.711,0-1.094-0.254-1.148-0.762   c-0.027-0.4,0.355-0.734,1.148-1.002c2.297-0.793,3.849-1.854,4.655-3.182c0.807-1.326,1.21-3.469,1.21-6.424v-27.912   c0-4.734-0.752-8.463-2.256-11.186s-3.678-4.275-6.521-4.658c-0.738-0.107-1.107-0.414-1.107-0.922c0-0.506,0.301-0.76,0.902-0.76   c0.137,0,0.355,0.014,0.656,0.041l1.682,0.041l2.748,0.082l0.656-0.041c0.656-0.027,1.162-0.041,1.518-0.041   c0.684,0,1.367,0.396,2.051,1.189l37.734,42.738c0.602,0.684,0.984,1.012,1.148,0.984c0.273-0.027,0.424-0.287,0.451-0.779v-20.303   l0.041-5.537l-0.492-9.434c-0.273-2.324-0.95-3.973-2.03-4.943s-3.028-1.688-5.845-2.152c-0.793-0.133-1.189-0.469-1.189-1.002   c0-0.508,0.396-0.762,1.189-0.762c0.355,0,0.93,0.037,1.723,0.111c1.887,0.199,4.416,0.299,7.588,0.299   c1.695,0,3.049-0.082,4.061-0.246c0.875-0.164,1.545-0.246,2.01-0.246c0.711,0,1.094,0.287,1.148,0.861   c0.027,0.355-0.246,0.615-0.82,0.779c-1.668,0.41-2.769,1.094-3.302,2.051s-0.8,2.748-0.8,5.373v4.43L210.054,600.42z"
   fill="#FFFFFF" />
	<path
   id="path32"
   d="M235.935,591.121v16.549c0,1.262,0.116,2.023,0.349,2.285c0.232,0.26,0.937,0.391,2.112,0.391h6.316   c2.871,0,5.141-0.164,6.809-0.492c1.477-0.301,2.434-0.697,2.871-1.189s0.834-1.641,1.189-3.445   c0.14-0.684,0.489-1.012,1.049-0.984c0.531,0.027,0.797,0.396,0.797,1.104c0,0.191-0.016,0.492-0.045,0.9   c-0.244,2.646-0.365,5.061-0.365,7.242c0,1.664,0.082,3.314,0.246,4.951c0.055,0.545,0.082,0.939,0.082,1.186   c0,0.682-0.266,1.023-0.797,1.023c-0.587,0-0.938-0.301-1.049-0.902l-0.245-1.148c-0.328-1.832-0.983-3.076-1.965-3.732   c-0.982-0.656-2.646-0.984-4.993-0.984h-9.046c-1.337,0-2.23,0.137-2.681,0.41c-0.45,0.275-0.676,0.822-0.676,1.645l0.041,1.355   v15.119c0,2.328,0.416,3.779,1.249,4.355s2.941,0.863,6.328,0.863c10.73,0,17.624-2.42,20.683-7.26   c0.309-0.465,0.616-0.711,0.925-0.738c0.504-0.027,0.757,0.326,0.757,1.063c0,1.771-0.998,3.883-2.994,6.336   c-2.406,2.941-5.441,4.414-9.105,4.414c-0.793,0-1.859-0.055-3.199-0.164c-5.223-0.492-9.543-0.738-12.961-0.738   c-4.785,0-8.162,0.164-10.131,0.492c-1.039,0.191-1.75,0.287-2.133,0.287c-0.875,0-1.313-0.295-1.313-0.883   c0-0.455,0.355-0.775,1.066-0.963l1.559-0.453c1.969-0.547,2.953-2.465,2.953-5.75l0.041-2.67v-34.711   c0-3.916-0.431-6.553-1.292-7.908s-2.536-2.033-5.024-2.033c-0.793,0-1.189-0.254-1.189-0.764c0-0.748,0.615-1.123,1.846-1.123   c0.684,0,1.6,0.068,2.748,0.205c3.91,0.438,8.613,0.656,14.109,0.656c3.336,0,6.289-0.055,8.859-0.164l5.824-0.287   c1.613-0.055,2.598-0.109,2.953-0.164c0.738-0.109,1.285-0.164,1.641-0.164c0.902,0,1.354,0.395,1.354,1.184   c0,0.246-0.041,0.561-0.123,0.941s-0.191,1.471-0.328,3.27l-0.164,2.41c-0.14,1.58-0.278,2.568-0.419,2.965   c-0.14,0.395-0.445,0.605-0.919,0.633c-0.53,0.027-0.795-0.383-0.795-1.23v-1.066c0-0.875-0.164-1.709-0.491-2.502   c-0.519-1.23-1.569-2.051-3.152-2.461s-4.49-0.615-8.721-0.615h-6.428c-1.692,0-2.784,0.213-3.275,0.639   C236.181,588.727,235.935,589.666,235.935,591.121z"
   fill="#FFFFFF" />
	<path
   id="path34"
   d="M313.332,609.137l8.225,19.457c0.899,2.164,1.554,3.244,1.963,3.244c0.354,0,0.804-0.631,1.349-1.893   c0.164-0.412,0.504-1.164,1.022-2.262c3.597-7.979,6.942-16.033,10.035-24.162s4.64-12.92,4.64-14.375   c0-1.287-1.162-2.18-3.486-2.672c-1.285-0.295-1.928-0.738-1.928-1.328c0-0.564,0.397-0.846,1.192-0.846   c0.138,0,0.384,0.014,0.74,0.041c1.151,0.082,2.796,0.123,4.936,0.123c2.494,0,4.358-0.074,5.593-0.225   c0.932-0.123,1.576-0.186,1.933-0.186c0.604,0,0.905,0.295,0.905,0.885c0,0.482-0.396,0.885-1.189,1.207   c-1.121,0.438-1.955,1.26-2.502,2.463l-2.256,4.883c-0.93,2.025-2.379,5.338-4.348,9.934c-2.023,4.844-3.568,8.469-4.635,10.877   l-4.922,11.123l-3.281,7.758l-1.969,4.475l-0.902,2.092l-0.615,1.232c-0.704,1.504-1.405,2.258-2.109,2.258   c-0.596,0-1.178-0.656-1.745-1.967l-10.198-23.762l-10.27,24.459c-0.487,1.174-0.987,1.748-1.502,1.721   c-0.703-0.027-1.488-1.096-2.354-3.203l-16.939-40.551l-1.066-2.709c-1.477-3.721-2.769-6.307-3.876-7.758   c-1.107-1.449-2.509-2.367-4.204-2.75l-1.682-0.369c-0.574-0.133-0.861-0.469-0.861-1.004c0-0.645,0.411-0.965,1.233-0.965   c0.246,0,0.589,0.027,1.027,0.082c1.068,0.137,2.438,0.205,4.11,0.205l5.057,0.041l3.452-0.082   c1.398-0.109,2.248-0.164,2.549-0.164c0.74,0,1.11,0.334,1.11,1.006c0,0.508-0.301,0.857-0.902,1.045   c-1.723,0.492-2.584,1.287-2.584,2.383c0,1.342,0.994,4.301,2.982,8.875c0.926,2.082,2.396,5.631,4.412,10.643   c1.962,4.877,3.351,8.246,4.168,10.109l4.004,8.875c0.437,0.986,0.735,1.645,0.898,1.973l0.49,0.863   c0.3,0.604,0.531,0.904,0.695,0.904c0.19,0,0.478-0.438,0.859-1.314l0.205-0.492l7.044-16.502   c-0.574-1.371-0.916-2.193-1.025-2.469l-3.65-8.553l-3.405-7.977c-1.285-2.906-2.27-4.756-2.953-5.551s-1.764-1.289-3.24-1.48   c-2.242-0.297-3.336-0.793-3.281-1.49c0.027-0.537,0.603-0.807,1.727-0.807l1.603,0.041l7.977,0.246   c1.15,0,2.507-0.082,4.069-0.246c0.904-0.082,1.493-0.123,1.768-0.123c0.958,0,1.438,0.322,1.438,0.965   c0,0.43-0.451,0.818-1.354,1.168c-1.313,0.549-1.969,1.426-1.969,2.633c0,1.043,0.491,2.73,1.473,5.063l4.337,10.287   c0.358-0.85,0.635-1.482,0.828-1.895c3.149-7.021,4.724-11.59,4.724-13.701c0-1.262-0.902-2.059-2.707-2.387   c-1.313-0.242-1.969-0.684-1.969-1.328c0-0.537,0.477-0.805,1.432-0.805c0.163,0,0.694,0.021,1.595,0.064   c1.199,0.066,2.604,0.1,4.212,0.1c1.745,0,3.081-0.053,4.008-0.16c0.79-0.084,1.35-0.127,1.677-0.127   c0.817,0,1.227,0.32,1.227,0.965c0,0.457-0.479,0.818-1.436,1.086c-1.039,0.328-1.798,0.82-2.275,1.479   c-0.479,0.656-1.347,2.463-2.604,5.418L313.332,609.137z"
   fill="#FFFFFF" />
	<path
   id="path36"
   d="M369.646,583.604c2.926,0,5.4,0.424,7.424,1.271l2.83,1.189c0.246,0.109,0.492,0.164,0.738,0.164   c0.328,0,0.656-0.137,0.984-0.41l0.574-0.492c0.082-0.109,0.232-0.164,0.451-0.164c0.684-0.027,1.025,0.643,1.025,2.01   c0,0.465,0.178,1.846,0.533,4.143l0.656,4.225c0.137,0.902,0.205,1.463,0.205,1.682c0,0.848-0.293,1.271-0.877,1.271   c-0.446,0-0.893-0.658-1.338-1.977c-0.981-2.963-2.979-5.404-5.99-7.324s-6.372-2.881-10.079-2.881   c-2.944,0-5.404,0.869-7.381,2.607s-2.964,3.906-2.964,6.508c0,2.299,0.642,4.283,1.925,5.953c1.119,1.424,2.342,2.465,3.666,3.121   c1.324,0.658,4.581,1.848,9.77,3.572c10.104,3.307,15.155,8.73,15.155,16.271c0,5.109-1.859,9.291-5.578,12.543   s-8.49,4.877-14.314,4.877c-2.105,0-4.423-0.301-6.952-0.902s-4.382-1.299-5.558-2.092c-0.492-0.328-0.82-0.678-0.984-1.047   s-0.41-1.318-0.738-2.85c-0.055-0.219-0.396-1.463-1.025-3.732c-0.711-2.461-1.066-4.211-1.066-5.25   c0-0.82,0.278-1.217,0.836-1.189c0.502,0.027,0.947,0.699,1.338,2.016c0.981,3.4,3.054,6.252,6.217,8.557   c3.164,2.303,6.6,3.455,10.308,3.455c3.764,0,6.946-1.109,9.552-3.326c2.604-2.217,3.906-4.912,3.906-8.088   c0-3.037-1.201-5.596-3.604-7.676c-1.229-1.068-4.779-2.588-10.649-4.559c-6.063-2.049-10.357-4.316-12.883-6.803   c-2.526-2.486-3.789-5.711-3.789-9.674c0-4.426,1.647-8.033,4.942-10.82S364.45,583.604,369.646,583.604z"
   fill="#FFFFFF" />
	<path
   id="path38"
   d="M432.728,583.604c2.926,0,5.4,0.424,7.424,1.271l2.83,1.189c0.246,0.109,0.492,0.164,0.738,0.164   c0.328,0,0.656-0.137,0.984-0.41l0.574-0.492c0.082-0.109,0.232-0.164,0.451-0.164c0.684-0.027,1.025,0.643,1.025,2.01   c0,0.465,0.178,1.846,0.533,4.143l0.656,4.225c0.137,0.902,0.205,1.463,0.205,1.682c0,0.848-0.293,1.271-0.877,1.271   c-0.446,0-0.893-0.658-1.338-1.977c-0.981-2.963-2.979-5.404-5.99-7.324s-6.372-2.881-10.079-2.881   c-2.944,0-5.404,0.869-7.381,2.607s-2.964,3.906-2.964,6.508c0,2.299,0.642,4.283,1.925,5.953c1.119,1.424,2.342,2.465,3.666,3.121   c1.324,0.658,4.581,1.848,9.77,3.572c10.104,3.307,15.155,8.73,15.155,16.271c0,5.109-1.859,9.291-5.578,12.543   s-8.49,4.877-14.314,4.877c-2.105,0-4.423-0.301-6.952-0.902s-4.382-1.299-5.558-2.092c-0.492-0.328-0.82-0.678-0.984-1.047   s-0.41-1.318-0.738-2.85c-0.055-0.219-0.396-1.463-1.025-3.732c-0.711-2.461-1.066-4.211-1.066-5.25   c0-0.82,0.278-1.217,0.836-1.189c0.502,0.027,0.947,0.699,1.338,2.016c0.981,3.4,3.054,6.252,6.217,8.557   c3.164,2.303,6.6,3.455,10.308,3.455c3.764,0,6.946-1.109,9.552-3.326c2.604-2.217,3.906-4.912,3.906-8.088   c0-3.037-1.201-5.596-3.604-7.676c-1.229-1.068-4.779-2.588-10.649-4.559c-6.063-2.049-10.357-4.316-12.883-6.803   c-2.526-2.486-3.789-5.711-3.789-9.674c0-4.426,1.647-8.033,4.942-10.82S427.532,583.604,432.728,583.604z"
   fill="#FFFFFF" />
	<path
   id="path40"
   d="M470.298,591.121v16.549c0,1.262,0.116,2.023,0.349,2.285c0.232,0.26,0.937,0.391,2.112,0.391h6.316   c2.871,0,5.141-0.164,6.809-0.492c1.477-0.301,2.434-0.697,2.871-1.189s0.834-1.641,1.189-3.445   c0.14-0.684,0.489-1.012,1.049-0.984c0.531,0.027,0.797,0.396,0.797,1.104c0,0.191-0.016,0.492-0.046,0.9   c-0.243,2.646-0.364,5.061-0.364,7.242c0,1.664,0.082,3.314,0.246,4.951c0.055,0.545,0.082,0.939,0.082,1.186   c0,0.682-0.266,1.023-0.797,1.023c-0.588,0-0.938-0.301-1.049-0.902l-0.245-1.148c-0.328-1.832-0.983-3.076-1.965-3.732   c-0.982-0.656-2.647-0.984-4.993-0.984h-9.046c-1.337,0-2.231,0.137-2.681,0.41c-0.451,0.275-0.676,0.822-0.676,1.645l0.041,1.355   v15.119c0,2.328,0.416,3.779,1.249,4.355s2.941,0.863,6.328,0.863c10.729,0,17.624-2.42,20.683-7.26   c0.309-0.465,0.616-0.711,0.925-0.738c0.504-0.027,0.757,0.326,0.757,1.063c0,1.771-0.998,3.883-2.994,6.336   c-2.406,2.941-5.441,4.414-9.105,4.414c-0.793,0-1.859-0.055-3.199-0.164c-5.223-0.492-9.543-0.738-12.961-0.738   c-4.785,0-8.162,0.164-10.131,0.492c-1.039,0.191-1.75,0.287-2.133,0.287c-0.875,0-1.313-0.295-1.313-0.883   c0-0.455,0.355-0.775,1.066-0.963l1.559-0.453c1.969-0.547,2.953-2.465,2.953-5.75l0.041-2.67v-34.711   c0-3.916-0.431-6.553-1.292-7.908s-2.536-2.033-5.024-2.033c-0.793,0-1.189-0.254-1.189-0.764c0-0.748,0.615-1.123,1.846-1.123   c0.684,0,1.6,0.068,2.748,0.205c3.91,0.438,8.613,0.656,14.109,0.656c3.336,0,6.289-0.055,8.859-0.164l5.824-0.287   c1.613-0.055,2.598-0.109,2.953-0.164c0.738-0.109,1.285-0.164,1.641-0.164c0.902,0,1.354,0.395,1.354,1.184   c0,0.246-0.041,0.561-0.123,0.941s-0.191,1.471-0.328,3.27l-0.164,2.41c-0.14,1.58-0.278,2.568-0.419,2.965   c-0.14,0.395-0.445,0.605-0.919,0.633c-0.53,0.027-0.795-0.383-0.795-1.23v-1.066c0-0.875-0.164-1.709-0.491-2.502   c-0.519-1.23-1.569-2.051-3.152-2.461s-4.49-0.615-8.721-0.615h-6.428c-1.692,0-2.785,0.213-3.275,0.639   C470.543,588.727,470.298,589.666,470.298,591.121z"
   fill="#FFFFFF" />
	<path
   id="path42"
   d="M534.364,612.59l11.32,16.689l1.313,1.965c3.5,5.127,6.727,7.785,9.68,7.977l1.313,0.082   c0.492,0.029,0.725,0.225,0.697,0.586c-0.027,0.418-0.636,0.793-1.825,1.127s-2.536,0.502-4.04,0.502   c-2.461,0-4.669-0.678-6.624-2.031s-3.944-3.561-5.968-6.623l-10.213-15.586l-0.574-0.902c-0.656-1.121-1.723-1.682-3.199-1.682   h-5.455l-0.902,0.164c-0.328,0.193-0.492,0.631-0.492,1.316v12.84l0.041,1.646c0,2.359,0.116,3.971,0.349,4.834   c0.232,0.865,0.786,1.641,1.661,2.326c1.176,0.934,2.994,1.521,5.455,1.77c0.984,0.107,1.49,0.414,1.518,0.922   c0.055,0.533-0.396,0.801-1.354,0.801c-0.383,0-1.189-0.061-2.42-0.182c-1.121-0.123-2.857-0.184-5.209-0.184l-3.938-0.045   l-2.133,0.041c-0.93,0-2.051,0.068-3.363,0.205c-1.066,0.109-1.805,0.164-2.215,0.164c-0.684,0-1.025-0.281-1.025-0.84   c0-0.4,0.342-0.668,1.025-0.801c2.188-0.41,3.623-1.404,4.307-2.979s1.025-4.676,1.025-9.305v-29.494l-0.082-4.271   c0-4.273-1.49-6.656-4.471-7.148l-1.928-0.287c-0.875-0.16-1.313-0.48-1.313-0.963c0-0.563,0.465-0.842,1.395-0.842   c0.219,0,1.176,0.055,2.871,0.164c0.984,0.082,2.201,0.123,3.65,0.123c1.258,0,3.404-0.096,6.439-0.287   c2.188-0.137,4.115-0.205,5.783-0.205c6.289,0,11.033,1.184,14.232,3.551s4.799,5.893,4.799,10.572   C544.495,604.459,541.118,609.223,534.364,612.59z M522.313,611.699h4.644c3.59,0,6.412-0.988,8.468-2.963   c2.055-1.975,3.083-4.678,3.083-8.107c0-3.979-1.397-7.25-4.192-9.814c-2.796-2.564-6.357-3.848-10.688-3.848   c-1.617,0-2.733,0.268-3.35,0.803s-0.925,1.502-0.925,2.9l0.041,1.357v16.709c0,1.289,0.171,2.105,0.514,2.449   C520.249,611.527,521.051,611.699,522.313,611.699z"
   fill="#FFFFFF" />
	<path
   id="path44"
   d="M567.338,594.363l15.769,36.199c0.382,0.904,0.736,1.344,1.064,1.316c0.272,0,0.764-0.781,1.473-2.344   l0.653-1.52l8.994-21.367c3.87-9.176,5.806-15.078,5.806-17.709c0-0.902-0.205-1.539-0.615-1.91   c-0.41-0.369-1.244-0.678-2.502-0.924c-1.531-0.295-2.283-0.67-2.256-1.125c0.027-0.508,0.479-0.762,1.357-0.762   c0.191,0,0.589,0.014,1.192,0.041c2.029,0.109,3.249,0.164,3.66,0.164h1.687l1.851-0.041h1.028l3.496-0.041   c0.548,0,0.822,0.238,0.822,0.715c0,0.393-0.287,0.688-0.861,0.885c-1.969,0.738-3.459,2.322-4.471,4.754l-1.107,2.664   l-20.385,47.748c-0.567,1.34-1.121,2.01-1.662,2.01c-0.567,0-1.148-0.686-1.742-2.053l-20.795-48.188   c-0.984-2.217-1.873-3.762-2.666-4.639c-0.793-0.875-1.873-1.436-3.24-1.682c-1.422-0.268-2.263-0.463-2.522-0.584   c-0.26-0.119-0.39-0.342-0.39-0.662c0-0.537,0.383-0.805,1.148-0.805c0.219,0,0.615,0.027,1.189,0.082   c0.465,0.055,1.846,0.082,4.143,0.082l3.896,0.041l2.748-0.041c0.574,0,1.449-0.055,2.625-0.164   c0.547-0.055,0.93-0.082,1.148-0.082c0.738,0,1.107,0.254,1.107,0.76c0,0.373-0.273,0.666-0.82,0.881   c-1.121,0.41-1.825,0.76-2.112,1.047c-0.287,0.289-0.431,0.789-0.431,1.5C565.618,589.789,566.191,591.707,567.338,594.363z"
   fill="#FFFFFF" />
	<path
   id="path46"
   d="M626.075,596.67v30.752c0,3.836,0.232,6.373,0.697,7.605c0.547,1.396,1.224,2.385,2.03,2.959   c0.807,0.576,2.071,0.988,3.794,1.234c1.367,0.188,2.051,0.521,2.051,1.004c0,0.643-0.424,0.965-1.271,0.965   c-0.41,0-0.93-0.047-1.559-0.137c-0.848-0.121-2.297-0.184-4.348-0.184l-5.947-0.09l-4.84,0.287   c-0.793,0.082-1.449,0.123-1.969,0.123c-0.738,0-1.107-0.281-1.107-0.842c0-0.48,0.424-0.789,1.271-0.922   c2.078-0.355,3.418-1.076,4.02-2.156c0.602-1.082,0.902-3.361,0.902-6.84v-35.164c0-3.395-0.39-5.682-1.169-6.859   s-2.44-1.973-4.983-2.383c-0.848-0.16-1.285-0.482-1.313-0.963c-0.027-0.59,0.369-0.883,1.189-0.883   c0.219,0,0.465,0.016,0.738,0.045c1.996,0.244,4.648,0.365,7.957,0.365c2.023,0,3.76-0.047,5.209-0.137l2.748-0.229   c0.52-0.029,0.861-0.045,1.025-0.045c0.738,0,1.107,0.254,1.107,0.762c0,0.482-0.355,0.844-1.066,1.084l-2.133,0.822   C627.087,587.613,626.075,590.889,626.075,596.67z"
   fill="#FFFFFF" />
	<path
   id="path48"
   d="M691.085,589.469l1.313,9.844l0.123,1.025l-0.123,0.41c-0.137,0.246-0.342,0.383-0.615,0.41   c-0.328,0.027-0.82-0.545-1.477-1.719c-5.118-8.943-12.057-13.416-20.814-13.416c-6.979,0-12.48,2.143-16.504,6.43   c-4.023,4.285-6.035,10.143-6.035,17.568c0,8.545,2.237,15.527,6.712,20.947c4.475,5.418,10.229,8.129,17.264,8.129   c4.105,0,8.143-1.098,12.11-3.291c3.969-2.195,6.719-4.855,8.252-7.982c0.711-1.453,1.258-2.193,1.641-2.221   c0.438-0.027,0.656,0.234,0.656,0.783l-0.041,0.453l-0.164,0.908l-0.943,5.029l-0.164,0.742c-0.109,0.711-0.752,1.449-1.928,2.215   c-6.316,4.02-13.275,6.029-20.877,6.029c-8.805,0-15.9-2.609-21.287-7.828c-5.387-5.221-8.08-12.092-8.08-20.617   s2.788-15.609,8.366-21.252s12.577-8.463,20.998-8.463c5.77,0,11.073,1.299,15.913,3.896l1.641,0.861l0.656,0.287l0.697,0.246   c0.137,0,0.342-0.109,0.616-0.328c0.603-0.438,1.013-0.656,1.232-0.656C690.661,587.91,690.948,588.43,691.085,589.469z"
   fill="#FFFFFF" />
	<path
   id="path50"
   d="M713.233,591.121v16.549c0,1.262,0.116,2.023,0.349,2.285c0.232,0.26,0.937,0.391,2.112,0.391h6.316   c2.871,0,5.141-0.164,6.809-0.492c1.477-0.301,2.434-0.697,2.871-1.189s0.834-1.641,1.189-3.445   c0.14-0.684,0.489-1.012,1.049-0.984c0.531,0.027,0.797,0.396,0.797,1.104c0,0.191-0.016,0.492-0.046,0.9   c-0.243,2.646-0.364,5.061-0.364,7.242c0,1.664,0.082,3.314,0.246,4.951c0.055,0.545,0.082,0.939,0.082,1.186   c0,0.682-0.266,1.023-0.797,1.023c-0.588,0-0.938-0.301-1.049-0.902l-0.245-1.148c-0.328-1.832-0.983-3.076-1.965-3.732   c-0.982-0.656-2.647-0.984-4.993-0.984h-9.046c-1.337,0-2.231,0.137-2.681,0.41c-0.451,0.275-0.676,0.822-0.676,1.645l0.041,1.355   v15.119c0,2.328,0.416,3.779,1.249,4.355s2.941,0.863,6.328,0.863c10.729,0,17.624-2.42,20.683-7.26   c0.309-0.465,0.616-0.711,0.925-0.738c0.504-0.027,0.757,0.326,0.757,1.063c0,1.771-0.998,3.883-2.994,6.336   c-2.406,2.941-5.441,4.414-9.105,4.414c-0.793,0-1.859-0.055-3.199-0.164c-5.223-0.492-9.543-0.738-12.961-0.738   c-4.785,0-8.162,0.164-10.131,0.492c-1.039,0.191-1.75,0.287-2.133,0.287c-0.875,0-1.313-0.295-1.313-0.883   c0-0.455,0.355-0.775,1.066-0.963l1.559-0.453c1.969-0.547,2.953-2.465,2.953-5.75l0.041-2.67v-34.711   c0-3.916-0.431-6.553-1.292-7.908s-2.536-2.033-5.024-2.033c-0.793,0-1.189-0.254-1.189-0.764c0-0.748,0.615-1.123,1.846-1.123   c0.684,0,1.6,0.068,2.748,0.205c3.91,0.438,8.613,0.656,14.109,0.656c3.336,0,6.289-0.055,8.859-0.164l5.824-0.287   c1.613-0.055,2.598-0.109,2.953-0.164c0.738-0.109,1.285-0.164,1.641-0.164c0.902,0,1.354,0.395,1.354,1.184   c0,0.246-0.041,0.561-0.123,0.941s-0.191,1.471-0.328,3.27l-0.164,2.41c-0.14,1.58-0.278,2.568-0.419,2.965   c-0.14,0.395-0.445,0.605-0.919,0.633c-0.53,0.027-0.795-0.383-0.795-1.23v-1.066c0-0.875-0.164-1.709-0.491-2.502   c-0.519-1.23-1.569-2.051-3.152-2.461s-4.49-0.615-8.721-0.615h-6.428c-1.692,0-2.785,0.213-3.275,0.639   C713.479,588.727,713.233,589.666,713.233,591.121z"
   fill="#FFFFFF" />
</g>
<g
   display="none"
   id="Layer_1">
	<g
   id="g61"
   display="inline">
		<path
   id="path53"
   d="M419.354,441.725c-2.35-1.887-4.742-3.725-6.708-6.037c-0.813-0.791-1.682-1.52-2.625-2.154    c-10.252-9.469-20.504-18.936-30.756-28.404c-0.778-0.896-1.943-1.395-2.551-2.469c-2.347-1.898-4.739-3.746-6.714-6.059    c-0.81-0.789-1.664-1.525-2.615-2.141c-10.255-9.472-20.51-18.946-30.763-28.417c-0.827-0.788-1.706-1.513-2.643-2.166    c-10.001-9.227-20.003-18.454-30.004-27.683c-0.981-0.797-1.868-1.69-2.683-2.654c-2.358-2.283-5.264-3.961-7.318-6.582    c-0.82-0.788-1.686-1.52-2.633-2.154c-10.004-9.231-20.01-18.463-30.014-27.694c-0.973-0.8-1.852-1.69-2.675-2.64    c-2.362-2.289-5.267-3.974-7.325-6.598c-0.814-0.787-1.67-1.523-2.623-2.143c-6.916-6.381-13.832-12.762-20.748-19.145    c-1.869,0.826-0.879,2.475-0.882,3.669c-0.067,36.906-0.067,73.813-0.034,110.718c0.004,3.651-0.354,7.318,0.272,10.957    c-0.353,2.758,0.006,5.499,0.206,8.245c0.531,1.471-0.133,3.074,0.501,4.533c0.7,12.373,2.394,24.504,9.847,34.926    c3.002,4.197,6.428,8.113,11.301,10.352c1.135,0.447,2.207,1,3.094,1.859c3.887,2.258,7.934,4.076,12.479,4.516    c1.146,1.576,0.723,3.234,0.256,4.895c-1.55-0.021-3.099-0.043-4.646-0.063c-1.451-0.652-3.057,0.053-4.516-0.521    c-1.34-0.063-2.682-0.125-4.021-0.188c-1.686-0.709-3.531,0.113-5.221-0.549l-4.705-0.164c-1.934-0.742-4.025,0.164-5.959-0.568    c-1.803-0.047-3.605-0.094-5.408-0.141c-2.895-0.814-5.913,0.234-8.807-0.584c-3.322-0.314-6.646-0.301-9.969-0.008    c-2.891,0.838-5.91-0.229-8.8,0.592c-1.808,0.053-3.615,0.105-5.422,0.158c-1.465,0.631-3.093-0.104-4.555,0.549    c-1.324,0.053-2.647,0.105-3.971,0.16c-1.459,0.639-3.085-0.107-4.542,0.549c-1.093,0.061-2.186,0.123-3.279,0.182    c-1.226,0.549-2.611-0.059-3.832,0.527c-1.289,0.02-2.577,0.039-3.865,0.057c-0.568-1.65-0.897-3.293,0.192-4.879    c8.572-1.979,16.119-6.086,21.885-12.586c5.252-5.92,7.848-13.4,9.232-21.209c0.475-2.676,0.891-5.363,1.334-8.045    c0.684-1.156-0.027-2.521,0.546-3.693c0.055-0.9,0.108-1.799,0.164-2.699c0.719-1.402-0.039-2.98,0.521-4.402    c0.069-2.285,0.139-4.572,0.208-6.857c0.811-4.799-0.174-9.664,0.52-14.466c-0.002-4.515-0.002-9.029-0.004-13.543    c-0.416-1.271-0.211-2.58-0.211-3.869c-0.013-37.675-0.006-75.349-0.031-113.022c0-1.265,0.394-2.601-0.391-3.797l-0.045-0.062    c-0.828-0.897-2.039-1.392-2.661-2.509c-7.393-6.691-14.732-13.445-22.2-20.051c-4.2-3.715-8.728-7.029-12.887-10.826    c-5.309-4.847-8.258-11.19-12.014-17.033c-1.87-2.91-3.534-5.954-5.475-9.249h3.942c1.907,0.772,3.979-0.159,5.889,0.571    c1.352,0.047,2.704,0.094,4.056,0.14c2.147,0.813,4.465-0.224,6.611,0.61c2.104,1.681,4.209,3.361,6.313,5.043    c1.281,0.625,2.167,1.66,2.927,2.824c2.356,2.133,4.711,4.264,7.067,6.396c1.162,0.656,2.03,1.638,2.89,2.627    c2.288,2.283,4.405,4.749,7.097,6.597c0.955,0.78,2.092,1.356,2.761,2.457c9.917,9.675,20.108,19.046,30.567,28.13    c0.98,0.456,1.663,1.219,2.2,2.133c2.597,2.362,5.192,4.727,7.789,7.088c1.151,0.662,2.019,1.64,2.885,2.615    c2.287,2.289,4.406,4.76,7.103,6.61c0.947,0.781,2.074,1.36,2.757,2.44c2.093,2.104,3.957,4.455,6.495,6.082    c0.932,0.795,2.063,1.367,2.746,2.444c6.742,6.939,14.011,13.308,21.333,19.617c0.971,0.466,1.652,1.226,2.194,2.131    c2.597,2.365,5.195,4.729,7.792,7.095c1.143,0.664,2.008,1.637,2.881,2.603c2.291,2.291,4.399,4.778,7.111,6.62    c0.936,0.785,2.054,1.365,2.749,2.426c9.941,9.658,20.111,19.068,30.575,28.16c0.966,0.466,1.644,1.229,2.192,2.124    c2.602,2.364,5.201,4.731,7.801,7.097c0.976,0.77,2.124,1.346,2.774,2.479c2.082,2.098,3.967,4.404,6.474,6.045    c0.964,0.783,2.123,1.351,2.767,2.49c10.198,9.854,20.587,19.502,31.303,28.795c0.951,0.479,1.631,1.235,2.185,2.122    c2.601,2.369,5.2,4.736,7.802,7.104c0.97,0.77,2.11,1.348,2.77,2.467c2.078,2.107,3.97,4.412,6.48,6.057    c0.955,0.781,2.096,1.355,2.762,2.461c9.922,9.664,20.104,19.045,30.566,28.123c0.529,0.287,1.057,0.639,1.052,1.295    c-0.048,6.9,0.505,13.811-0.294,20.699c-6.779,1.307-9.304-4.801-13.607-7.809c-1-0.777-1.875-1.684-2.709-2.633    c-2.104-2.564-5.323-3.895-7.295-6.604C421.126,443.314,419.943,442.824,419.354,441.725"
   fill="#EE3331" />
		<path
   id="path55"
   d="M92.416,261.424c-1.08-5.468-6.121-5.085-9.842-6.457c-2.267-0.835-4.87-0.715-7.23-1.362    c-1.27-0.348-3.136-0.66-2.795-2.828c0.302-1.922,1.949-1.843,3.235-1.892c3.284-0.127,6.576-0.036,9.865-0.032    c2.43,0.754,4.975-0.125,7.413,0.521c10.418,0.04,20.837,0.079,31.256,0.12c0.829,0.003,1.66-0.03,2.487,0.009    c1.455,0.067,2.871,0.301,3.197,2.063c0.321,1.728-0.698,2.709-2.177,3.159c-9.936,3.029-15.23,10.478-19.53,19.38    c-13.647,28.26-27.629,56.357-41.454,84.53c-11.363,23.157-22.709,46.322-34.006,69.511c-2.104,4.32-3.808,8.836-6.5,12.855    c-3.093,4.617-5.675,4.609-8.583-0.043c-5.954-9.525-9.757-20.127-14.987-30.004c-7.613-14.379-14.338-29.19-21.518-43.773    c-7.747-15.733-15.453-31.501-22.974-47.353c-6.321-13.324-13.094-26.434-19.589-39.676c-2.834-5.779-5.569-11.556-9.452-16.785    c-4.327-5.827-10.413-7.941-17.039-8.955c-2.008-0.307-3.956-0.947-6.012-1.067c-1.608-0.093-2.842-0.903-2.646-2.872    c0.198-2.005,1.545-2.477,3.22-2.363c3.283,0.225,6.557,0.573,9.84,0.787c1.404,0.092,2.823-0.023,4.235-0.045    c6.001,0.674,12.022,0.254,18.03,0.256c6.009,0,12.03,0.414,18.031-0.254c1.102-0.065,2.204-0.13,3.306-0.195    c1.196-0.534,2.559,0.121,3.74-0.522c1.77,0.009,3.561-0.141,5.301,0.091c0.925,0.123,2.162,0.439,2.296,1.807    c0.12,1.22-0.001,2.271-1.3,2.981c-1.492,0.814-2.939,1.642-4.621,2.044c-5.519,1.323-6.761,3.012-6.297,8.629    c0.533,6.44,3.441,12.119,6.183,17.76c10.771,22.162,21.752,44.222,32.633,66.33c8.898,18.08,17.763,36.177,26.639,54.268    c0.05,0.102,0.011,0.258,0.075,0.342c1.13,1.477,1.164,4.205,3.606,4.158c2.546-0.051,3.561-2.42,4.487-4.381    c5.598-11.851,11.559-23.524,16.91-35.5c5.199-11.641,11.152-22.94,16.564-34.488c5.818-12.417,11.604-24.857,16.998-37.461    c3.856-9.014,7.425-18.189,9.019-27.964C92.89,264.975,92.915,263.199,92.416,261.424"
   fill="#010101" />
		<path
   id="path57"
   d="M611.124,250.802c8.475,1.178,16.54,3.842,24.514,6.813c0.802,0.299,1.552,0.479,2.381,0.45    c1.253,0.48,2.505,0.531,3.755-0.016c0.616-0.277,1.295-0.467,1.84-0.846c4.655-3.236,6.072-2.855,8.13,2.25    c0.651,1.674-0.188,3.506,0.544,5.17c0.455,8.199,2.775,16.096,3.934,24.182c0.198,1.386,0.292,2.804,0.659,4.146    c0.655,2.392,0.021,4.382-2.158,5.33c-2.385,1.038-3.936-0.478-5.045-2.545c-2-3.731-3.436-7.759-5.936-11.228    c-6.476-8.982-15.333-14.938-25.265-19.308c-7.448-3.278-15.4-4.952-23.501-5.817c-5.087-0.492-10.174-0.521-15.261,0.008    c-14.41,0.602-28.228,10.41-31.357,21.002c-2.89,9.785-1.25,18.717,5.352,26.634c6.236,7.481,14.519,11.416,23.617,14.306    c17.08,5.426,34.785,8.959,51.206,16.373c13.034,5.887,25.105,13.289,31.531,26.807c7.669,16.131,5.346,31.725-4.551,46.133    c-5.666,8.25-13.562,14.133-22.535,18.73c-10.059,5.154-20.729,7.822-31.806,9.287c-1.242,0.475-2.616-0.078-3.845,0.496    c-6.172,0.002-12.343,0.004-18.516,0.006c-1.249-0.57-2.646-0.018-3.904-0.521c-9.844-0.793-19.44-2.85-28.766-6.025    c-4.157-1.416-8.529-2.756-10.973-7.018c-1.816-3.17-2.235-6.805-3.313-10.197c-2.396-7.551-5.168-15-6.92-22.765    c-0.429-1.896-0.141-3.684-0.296-5.512c-0.087-1.021-0.559-2.592,1.029-3.032c1.599-0.444,3.213-0.57,4.579,0.889    c1.481,1.581,2.345,3.5,3.046,5.442c5.888,16.332,18.145,26.251,33.331,33.195c7.25,3.316,14.778,5.688,22.867,5.74    c4.945,0.479,9.893,0.477,14.838,0.002c11.262-0.527,21.025-4.832,30.006-11.465c6.141-4.537,10.303-10.25,12.553-17.521    c2.964-9.58,0.665-17.987-5.319-25.665c-6.166-7.912-15.044-11.359-24.101-14.354c-10.503-3.476-21.092-6.695-31.663-9.962    c-14.409-4.453-28.54-9.484-40.778-18.674c-7.528-5.651-12.243-13.121-14.777-22.145c-0.835-2.975-0.471-5.977-0.963-8.932    c-0.332-1.176-0.342-2.352,0.008-3.526c0.089-12.297,5.354-22.284,14.417-30.122c10.064-8.705,22.164-13.24,35.219-15.338    c1.739-0.279,3.477-0.572,5.214-0.859c1.261-0.51,2.664,0.045,3.916-0.527c6.386,0.001,12.771,0.002,19.157,0.003    C608.467,250.847,609.867,250.288,611.124,250.802"
   fill="#010101" />
		<path
   id="path59"
   d="M446.195,249.926c0.023,25.538,0.061,51.077,0.072,76.617c0.012,28.497,0.023,56.993-0.09,85.49    c-0.003,0.932,1.597,3.186-1.314,3.135c-3.858-3.582-7.716-7.166-11.574-10.75c-0.687-0.598-1.329-1.24-1.951-1.902    c-2.133-2.543-5.322-3.92-7.307-6.625c-0.82-0.801-1.72-1.504-2.644-2.18c-10.238-9.459-20.477-18.919-30.715-28.379    c-0.708-0.592-1.36-1.24-1.973-1.93c-2.447-2.684-5.771-4.405-8.019-7.308c-0.82-0.798-1.713-1.507-2.643-2.171    c-2.207-2.119-4.413-4.236-6.62-6.355c-0.808-0.791-1.659-1.527-2.613-2.139c-10.248-9.473-20.497-18.947-30.745-28.421    c-0.954-0.803-1.824-1.692-2.659-2.616c-9.115-8.246-18.25-16.471-27.338-24.746c-4.496-4.096-8.905-8.287-13.354-12.435    c-0.693-0.604-1.344-1.251-1.945-1.949c-2.131-2.532-5.361-3.844-7.313-6.577c-0.816-0.8-1.713-1.507-2.639-2.173    c-10.242-9.463-20.482-18.925-30.721-28.387c-0.703-0.593-1.71-1.239-2.326-1.922c-2.453-2.681-5.415-4.414-7.667-7.315    c-0.821-0.789-1.695-1.515-2.635-2.16c-2.209-2.123-4.418-4.244-6.625-6.367c-0.806-0.791-1.654-1.527-2.61-2.135L208.74,198.33    c-0.701-0.594-1.352-1.24-1.966-1.921c-1.665-2.433-4.905-3.212-6.549-6.458c5.947,0,11.708,0.602,17.291-0.143    c8-1.07,13.658,2.092,18.727,7.723c2.41,2.678,5.405,4.828,8.135,7.217c0.963,0.467,1.639,1.23,2.192,2.121l7.813,7.096    c0.957,0.77,2.074,1.357,2.764,2.434c9.703,9.42,19.628,18.602,29.87,27.435c0.963,0.469,1.64,1.231,2.193,2.122    c2.604,2.365,5.207,4.73,7.812,7.096c0.959,0.771,2.079,1.357,2.764,2.439c9.704,9.418,19.633,18.592,29.87,27.429    c0.963,0.467,1.64,1.231,2.193,2.122c2.604,2.365,5.207,4.73,7.811,7.096c0.96,0.775,2.094,1.354,2.764,2.455    c2.097,2.098,3.963,4.439,6.5,6.064c0.93,0.791,2.045,1.369,2.745,2.422c6.489,6.729,13.566,12.818,20.625,18.927    c0.965,0.465,1.639,1.231,2.195,2.12c2.604,2.365,5.207,4.73,7.811,7.097c0.959,0.775,2.09,1.356,2.765,2.452    c2.093,2.1,3.96,4.443,6.497,6.068c0.931,0.791,2.05,1.369,2.746,2.426c6.737,6.959,14.088,13.25,21.362,19.624    c0.932,0.491,1.608,1.244,2.174,2.11c2.364,2.137,4.729,4.271,7.092,6.406c0.443,0.349,1.094,1.089,1.297,0.98    c1.223-0.645,0.564-1.877,0.566-2.824c0.039-34.199,0.041-68.398,0.011-102.598c-0.002-1.991,0.27-4.02-0.369-5.98    c-0.067-3.472-0.134-6.943-0.2-10.416c-0.565-1.715,0.166-3.554-0.505-5.259c-0.065-1.326-0.132-2.651-0.198-3.978    c-0.551-1.174,0.149-2.529-0.537-3.684c-1.608-16.291-7.848-29.826-22.731-38.224c-1.125-0.826-2.445-1.314-3.605-2.08    c-4.242-1.562-8.396-3.354-12.996-3.772c-2.523-0.229-1.602-2.398-1.723-3.893c-0.158-1.936,1.224-1.551,2.37-1.52    c0.697,0.018,1.396-0.016,2.094-0.024c1.222,0.58,2.6-0.005,3.829,0.512c1.575,0.063,3.151,0.128,4.727,0.192    c1.928,0.738,4.009-0.147,5.94,0.555c1.357,0.048,2.715,0.096,4.072,0.143c2.384,0.821,4.913-0.198,7.3,0.584    c1.801,0.045,3.601,0.092,5.401,0.138c3.377,0.807,6.858-0.22,10.235,0.588c2.612,0.294,5.226,0.304,7.839,0    c3.117-0.835,6.354,0.247,9.472-0.591c1.819-0.049,3.638-0.098,5.456-0.146c1.921-0.717,3.996,0.191,5.912-0.563    c1.583-0.055,3.166-0.109,4.75-0.163c1.697-0.651,3.545,0.155,5.237-0.542c1.334-0.059,2.668-0.117,4.001-0.176    c1.689-0.644,3.529,0.17,5.212-0.539c1.583-0.025,3.167-0.051,4.75-0.076c0.296,1.669,0.848,3.355-0.335,4.923    c-8.44,1.067-15.253,5.272-21.252,11.036c-7.77,7.462-11.64,16.834-13.258,27.279c-0.431,2.787-1.079,5.565-0.786,8.424    c-0.678,1.429,0.045,3.019-0.516,4.461c-0.065,2.283-0.132,4.566-0.198,6.849"
   fill="#EE3331" />
	</g>
	<g
   id="g65"
   display="inline">
		<path
   id="path63"
   d="M724.936,182.513c-5.881,0-10.648,4.768-10.649,10.65c0.001,5.879,4.769,10.648,10.649,10.648    c5.883,0,10.651-4.77,10.651-10.648C735.587,187.281,730.818,182.513,724.936,182.513 M724.936,202.087    c-4.927-0.012-8.915-3.996-8.923-8.924c0.008-4.927,3.996-8.916,8.923-8.924c4.93,0.008,8.915,3.997,8.924,8.924    C733.851,198.091,729.865,202.076,724.936,202.087 M727.877,194.46c-0.317-0.34-0.718-0.649-1.205-0.934    c0.979-0.141,1.711-0.484,2.203-1.029c0.49-0.543,0.735-1.231,0.735-2.066c0-0.657-0.16-1.242-0.486-1.751    c-0.322-0.513-0.754-0.868-1.294-1.067c-0.537-0.199-1.402-0.301-2.591-0.301h-4.728v11.126h2.247v-4.646h0.453    c0.519,0,0.896,0.041,1.134,0.125c0.236,0.084,0.461,0.238,0.674,0.463c0.211,0.226,0.605,0.772,1.186,1.636l1.622,2.422h2.687    l-1.359-2.17C728.619,195.402,728.193,194.799,727.877,194.46 M724.419,192.019h-1.66v-2.822h1.752    c0.909,0,1.457,0.012,1.641,0.036c0.362,0.062,0.645,0.207,0.846,0.437c0.199,0.231,0.297,0.531,0.297,0.908    c0,0.332-0.075,0.61-0.226,0.834c-0.151,0.222-0.363,0.377-0.631,0.471C726.169,191.972,725.497,192.019,724.419,192.019"
   fill="#010101" />
	</g>
	<g
   id="g71"
   display="inline">
		<path
   id="path67"
   d="M704.117,541.008c0.007,3.078-0.165,6.17,0.076,9.23c0.194,2.473-0.796,3.125-2.988,2.803    c-0.464-0.066-0.946-0.01-1.42-0.01c-276.857,0-553.715-0.006-830.573,0.076c-3.394,0-4.953-0.531-4.419-4.295    c0.363-2.555,0.081-5.201,0.088-7.807c1.571-1.236,3.421-0.74,5.15-0.742c41.334-0.027,82.669-0.021,124.003-0.021    c234.74,0,469.482-0.002,704.224,0.027C700.216,540.27,702.305,539.682,704.117,541.008"
   fill="#010101" />
		<rect
   id="rect69"
   height="11"
   width="839"
   fill="#010101"
   y="518.4"
   x="-136.169" />
	</g>
	<g
   id="g109"
   display="inline">
		<g
   id="g107">
			<path
   id="path73"
   d="M-148.176,595.362l15.768,36.199c0.382,0.904,0.737,1.343,1.065,1.315c0.272,0,0.763-0.78,1.472-2.343     l0.653-1.52l8.994-21.367c3.87-9.176,5.806-15.079,5.806-17.709c0-0.903-0.205-1.54-0.615-1.91s-1.244-0.678-2.502-0.925     c-1.531-0.294-2.283-0.669-2.256-1.124c0.027-0.508,0.479-0.763,1.357-0.763c0.191,0,0.589,0.014,1.192,0.041     c2.029,0.109,3.249,0.164,3.66,0.164h1.687l1.851-0.041h1.028l3.496-0.041c0.548,0,0.822,0.239,0.822,0.716     c0,0.393-0.287,0.688-0.861,0.884c-1.969,0.738-3.459,2.323-4.471,4.755l-1.107,2.664l-20.385,47.748     c-0.567,1.339-1.121,2.009-1.661,2.009c-0.568,0-1.148-0.685-1.743-2.052l-20.795-48.188c-0.984-2.217-1.873-3.763-2.666-4.639     c-0.793-0.875-1.873-1.437-3.24-1.683c-1.421-0.268-2.262-0.462-2.522-0.583c-0.26-0.12-0.39-0.342-0.39-0.663     c0-0.536,0.384-0.805,1.148-0.805c0.22,0,0.615,0.027,1.189,0.082c0.465,0.055,1.846,0.082,4.143,0.082l3.896,0.041l2.748-0.041     c0.574,0,1.449-0.055,2.625-0.164c0.547-0.055,0.93-0.082,1.148-0.082c0.738,0,1.107,0.254,1.107,0.76     c0,0.374-0.273,0.667-0.82,0.881c-1.121,0.411-1.825,0.761-2.112,1.048c-0.287,0.288-0.431,0.788-0.431,1.5     C-149.896,590.788-149.323,592.705-148.176,595.362z"
   fill="#010101" />
			<path
   id="path75"
   d="M-89.439,597.669v30.751c0,3.837,0.232,6.373,0.697,7.605c0.547,1.397,1.224,2.385,2.03,2.96     c0.807,0.576,2.071,0.987,3.794,1.233c1.367,0.188,2.051,0.522,2.051,1.004c0,0.644-0.424,0.965-1.271,0.965     c-0.41,0-0.93-0.046-1.559-0.137c-0.848-0.121-2.297-0.183-4.348-0.183l-5.947-0.091l-4.84,0.287     c-0.793,0.082-1.449,0.123-1.969,0.123c-0.738,0-1.107-0.28-1.107-0.842c0-0.48,0.424-0.788,1.271-0.922     c2.078-0.355,3.418-1.075,4.02-2.156c0.602-1.082,0.902-3.361,0.902-6.84v-35.164c0-3.395-0.39-5.682-1.169-6.859     s-2.44-1.972-4.983-2.383c-0.848-0.16-1.285-0.481-1.313-0.963c-0.027-0.589,0.369-0.883,1.189-0.883     c0.219,0,0.465,0.016,0.738,0.046c1.996,0.243,4.648,0.364,7.957,0.364c2.023,0,3.76-0.046,5.209-0.137l2.748-0.228     c0.52-0.03,0.861-0.046,1.025-0.046c0.738,0,1.107,0.255,1.107,0.763c0,0.481-0.355,0.843-1.066,1.083l-2.133,0.822     C-88.428,588.611-89.439,591.887-89.439,597.669z"
   fill="#010101" />
			<path
   id="path77"
   d="M-57.406,584.602c2.926,0,5.4,0.424,7.424,1.271l2.83,1.189c0.246,0.109,0.492,0.164,0.738,0.164     c0.328,0,0.656-0.137,0.984-0.41l0.574-0.492c0.082-0.109,0.232-0.164,0.451-0.164c0.684-0.027,1.025,0.643,1.025,2.01     c0,0.465,0.178,1.846,0.533,4.143l0.656,4.225c0.137,0.902,0.205,1.463,0.205,1.682c0,0.848-0.293,1.271-0.877,1.271     c-0.446,0-0.893-0.658-1.338-1.976c-0.981-2.963-2.978-5.404-5.99-7.325c-3.012-1.92-6.372-2.881-10.079-2.881     c-2.943,0-5.404,0.87-7.381,2.607c-1.976,1.738-2.964,3.907-2.964,6.508c0,2.299,0.642,4.284,1.926,5.954     c1.118,1.424,2.341,2.464,3.665,3.12c1.324,0.658,4.581,1.849,9.77,3.572c10.104,3.308,15.155,8.73,15.155,16.271     c0,5.11-1.859,9.291-5.578,12.543s-8.49,4.877-14.314,4.877c-2.105,0-4.423-0.301-6.952-0.902s-4.382-1.299-5.558-2.092     c-0.492-0.328-0.82-0.677-0.984-1.046s-0.41-1.319-0.738-2.851c-0.055-0.219-0.396-1.463-1.025-3.732     c-0.711-2.461-1.066-4.211-1.066-5.25c0-0.82,0.279-1.217,0.837-1.189c0.501,0.027,0.947,0.699,1.337,2.016     c0.982,3.4,3.054,6.253,6.218,8.557c3.163,2.304,6.599,3.455,10.308,3.455c3.763,0,6.946-1.108,9.551-3.325     s3.906-4.913,3.906-8.088c0-3.038-1.201-5.597-3.604-7.677c-1.229-1.068-4.779-2.587-10.649-4.558     c-6.063-2.05-10.357-4.316-12.883-6.804c-2.526-2.486-3.789-5.711-3.789-9.673c0-4.426,1.647-8.033,4.942-10.82     S-62.602,584.602-57.406,584.602z"
   fill="#010101" />
			<path
   id="path79"
   d="M16.791,618.046v-21.229c0-3.415-0.492-5.895-1.477-7.438c-0.984-1.543-2.652-2.425-5.004-2.644     c-0.793-0.08-1.189-0.374-1.189-0.881c0-0.589,0.272-0.869,0.818-0.842c0.601,0.027,1.473,0.137,2.618,0.328     c1.036,0.164,2.276,0.246,3.723,0.246c3.054,0,4.936-0.041,5.645-0.123c0.955-0.082,1.555-0.123,1.8-0.123     c0.518,0,0.777,0.24,0.777,0.721c0,0.4-0.287,0.722-0.861,0.961c-1.668,0.684-2.748,1.641-3.24,2.871s-0.738,3.555-0.738,6.973     v20.303c0,7.465-1.49,13.207-4.471,17.227c-1.887,2.543-4.587,4.573-8.101,6.091s-7.267,2.276-11.259,2.276     c-4.648,0-8.832-0.902-12.551-2.707s-6.439-4.252-8.162-7.342c-1.941-3.555-2.912-8.189-2.912-13.904v-20.836l-0.082-2.338     c0-2.926-0.403-4.942-1.21-6.05s-2.427-1.839-4.86-2.194c-0.738-0.106-1.107-0.387-1.107-0.842c0-0.642,0.52-0.963,1.559-0.963     c0.684,0,1.627,0.027,2.83,0.082c1.258,0.082,2.174,0.123,2.748,0.123l3.158-0.041h3.117c0.328,0,1.094-0.055,2.297-0.164     c1.012-0.082,1.709-0.123,2.092-0.123c0.629,0,0.943,0.214,0.943,0.641c0,0.507-0.438,0.84-1.313,1     c-1.586,0.355-2.646,1.045-3.179,2.07c-0.533,1.024-0.8,2.861-0.8,5.512l0.082,2.704v20.656c0,7.05,1.095,12.076,3.285,15.082     c3.093,4.263,8.279,6.394,15.562,6.394c6.515,0,11.387-1.782,14.617-5.348C15.176,630.607,16.791,625.232,16.791,618.046z"
   fill="#010101" />
			<path
   id="path81"
   d="M57.232,620.285H42.385c-2.023,0-3.281,0.165-3.773,0.493c-0.492,0.329-1.148,1.425-1.969,3.288     l-2.69,6.041c-1.214,2.768-1.821,4.823-1.821,6.165c0,1.288,0.321,2.22,0.964,2.795c0.643,0.576,1.907,1.068,3.794,1.479     c0.82,0.16,1.244,0.48,1.271,0.961c0.027,0.453-0.354,0.68-1.145,0.68c-0.301,0-0.765-0.016-1.392-0.046l-3.928-0.231     c-1.31-0.061-2.823-0.092-4.542-0.092c-0.79,0-1.404,0.02-1.84,0.058c-1.392,0.152-2.155,0.229-2.291,0.229     c-0.736,0-1.105-0.253-1.105-0.758c0-0.448,0.232-0.742,0.697-0.883l1.518-0.452c0.547-0.164,1.285-0.827,2.215-1.99     c0.93-1.162,1.695-2.374,2.297-3.633l1.189-2.709l21.082-46.832c0.355-0.82,0.752-1.231,1.189-1.231s0.807,0.397,1.107,1.191     l17.637,45.183l0.902,2.218c1.285,3.313,2.352,5.375,3.199,6.182c0.848,0.808,2.57,1.445,5.168,1.91     c0.848,0.16,1.258,0.494,1.23,1.001c-0.027,0.454-0.41,0.681-1.148,0.681c-0.246,0-0.766-0.027-1.559-0.082     c-1.422-0.137-3.951-0.205-7.588-0.205c-3.801,0-6.18,0.082-7.137,0.246c-0.574,0.109-0.998,0.164-1.271,0.164     c-0.711,0-1.066-0.28-1.066-0.841c0-0.427,0.342-0.708,1.025-0.841l1.271-0.288c1.367-0.273,2.051-1.205,2.051-2.795     c0-1.452-0.834-4.342-2.502-8.671l-2.051-5.426c-0.574-1.507-1.025-2.376-1.354-2.609S58.764,620.285,57.232,620.285z      M57.725,613.682l-6.439-16.242l-0.328-0.861c-0.328-0.875-0.684-1.326-1.066-1.354c-0.191-0.027-0.41,0.232-0.656,0.779     l-7.998,17.76c-0.355,0.766-0.533,1.271-0.533,1.518c0,0.711,0.629,1.066,1.887,1.066l1.107,0.041h12.387     c1.367,0,2.051-0.342,2.051-1.025c0-0.191-0.068-0.506-0.205-0.943L57.725,613.682z"
   fill="#010101" />
			<path
   id="path83"
   d="M96.525,630.649l0.041,1.438c0,3.287,0.314,5.231,0.945,5.834c0.629,0.603,2.683,0.903,6.161,0.903     c5.12,0,9.563-0.608,13.329-1.825s6.168-2.823,7.209-4.819c0.383-0.738,0.766-1.107,1.148-1.107c0.438,0,0.643,0.272,0.615,0.817     c-0.109,1.798-0.999,3.773-2.668,5.925c-2.354,2.97-6.173,4.455-11.455,4.455c-0.876,0-1.889-0.041-3.038-0.123l-4.434-0.328     c-2.601-0.191-5.352-0.287-8.253-0.287c-3.367,0-6.187,0.164-8.457,0.492c-0.959,0.137-1.725,0.219-2.299,0.246     c-0.685,0.027-1.027-0.214-1.027-0.721c0-0.427,0.372-0.747,1.115-0.961c1.899-0.575,3.173-1.417,3.82-2.526     c0.647-1.108,0.971-2.979,0.971-5.606l0.041-1.891V593.84c0-3.642-1.477-5.764-4.43-6.366l-1.846-0.37     c-0.656-0.133-0.984-0.4-0.984-0.801c0-0.614,0.464-0.922,1.393-0.922c0.626,0,1.485,0.055,2.578,0.164     c1.855,0.164,3.942,0.246,6.263,0.246c2.51,0,4.788-0.068,6.835-0.205c1.037-0.055,1.623-0.082,1.76-0.082     c0.655,0,0.982,0.2,0.982,0.602c0,0.588-0.396,0.975-1.189,1.162l-1.436,0.329c-2.461,0.603-3.691,3.054-3.691,7.353V630.649z"
   fill="#010101" />
			<path
   id="path85"
   d="M199.557,601.418v34.371c0,3.09-0.068,4.97-0.205,5.64s-0.52,0.991-1.148,0.964     c-0.41-0.027-0.725-0.15-0.943-0.369l-0.902-1.066l-34.576-39.539l-0.41-0.451c-0.164-0.164-0.355-0.246-0.574-0.246     c-0.52,0-0.779,0.616-0.779,1.848v27.838l-0.041,1.724l0.123,2.916c0.191,1.807,0.656,3.052,1.395,3.736s2.188,1.19,4.348,1.519     c0.902,0.107,1.354,0.455,1.354,1.043c0,0.535-0.287,0.803-0.861,0.803c-0.383,0-0.793-0.027-1.23-0.082     c-0.301-0.055-1.49-0.137-3.568-0.246l-4.184-0.205l-1.969,0.074c-1.066,0-2.078,0.063-3.035,0.187     c-0.711,0.1-1.217,0.149-1.518,0.149c-0.711,0-1.094-0.254-1.148-0.762c-0.027-0.4,0.355-0.734,1.148-1.002     c2.297-0.793,3.849-1.854,4.655-3.181s1.21-3.469,1.21-6.425v-27.912c0-4.733-0.752-8.462-2.256-11.185s-3.678-4.276-6.521-4.659     c-0.738-0.106-1.107-0.413-1.107-0.921c0-0.507,0.301-0.761,0.902-0.761c0.137,0,0.355,0.014,0.656,0.041l1.682,0.041     l2.748,0.082l0.656-0.041c0.656-0.027,1.162-0.041,1.518-0.041c0.684,0,1.367,0.396,2.051,1.189l37.734,42.738     c0.602,0.684,0.984,1.012,1.148,0.984c0.273-0.027,0.424-0.287,0.451-0.779v-20.303l0.041-5.537l-0.492-9.434     c-0.273-2.324-0.95-3.972-2.03-4.942s-3.028-1.688-5.845-2.153c-0.793-0.133-1.189-0.468-1.189-1.002     c0-0.508,0.396-0.762,1.189-0.762c0.355,0,0.93,0.038,1.723,0.112c1.887,0.198,4.416,0.298,7.588,0.298     c1.695,0,3.049-0.082,4.061-0.246c0.875-0.164,1.545-0.246,2.01-0.246c0.711,0,1.094,0.287,1.148,0.861     c0.027,0.355-0.246,0.615-0.82,0.779c-1.668,0.41-2.769,1.094-3.302,2.051s-0.8,2.748-0.8,5.373v4.43L199.557,601.418z"
   fill="#010101" />
			<path
   id="path87"
   d="M225.438,592.12v16.548c0,1.263,0.116,2.024,0.349,2.285s0.937,0.391,2.112,0.391h6.316     c2.871,0,5.141-0.164,6.809-0.492c1.477-0.301,2.434-0.697,2.871-1.189s0.834-1.641,1.189-3.445     c0.14-0.684,0.489-1.012,1.049-0.984c0.531,0.027,0.797,0.396,0.797,1.104c0,0.191-0.016,0.491-0.045,0.9     c-0.244,2.646-0.365,5.06-0.365,7.241c0,1.664,0.082,3.314,0.246,4.951c0.055,0.545,0.082,0.94,0.082,1.187     c0,0.682-0.266,1.022-0.797,1.022c-0.587,0-0.938-0.301-1.049-0.902l-0.245-1.148c-0.328-1.832-0.983-3.076-1.965-3.732     c-0.982-0.656-2.646-0.984-4.993-0.984h-9.046c-1.337,0-2.23,0.137-2.681,0.411s-0.676,0.822-0.676,1.644l0.041,1.355v15.12     c0,2.328,0.416,3.779,1.249,4.355c0.833,0.575,2.941,0.862,6.328,0.862c10.73,0,17.624-2.42,20.683-7.26     c0.309-0.465,0.616-0.711,0.925-0.738c0.504-0.027,0.757,0.327,0.757,1.063c0,1.771-0.998,3.884-2.994,6.336     c-2.406,2.942-5.441,4.414-9.105,4.414c-0.793,0-1.859-0.055-3.199-0.164c-5.223-0.492-9.543-0.738-12.961-0.738     c-4.785,0-8.162,0.164-10.131,0.492c-1.039,0.191-1.75,0.287-2.133,0.287c-0.875,0-1.313-0.294-1.313-0.883     c0-0.455,0.355-0.775,1.066-0.963l1.559-0.452c1.969-0.547,2.953-2.465,2.953-5.751l0.041-2.67v-34.711     c0-3.916-0.431-6.552-1.292-7.908c-0.861-1.355-2.536-2.033-5.024-2.033c-0.793,0-1.189-0.254-1.189-0.763     c0-0.749,0.615-1.124,1.846-1.124c0.684,0,1.6,0.068,2.748,0.205c3.91,0.438,8.613,0.656,14.109,0.656     c3.336,0,6.289-0.055,8.859-0.164l5.824-0.287c1.613-0.055,2.598-0.109,2.953-0.164c0.738-0.109,1.285-0.164,1.641-0.164     c0.902,0,1.354,0.396,1.354,1.185c0,0.246-0.041,0.56-0.123,0.94c-0.082,0.382-0.191,1.472-0.328,3.27l-0.164,2.411     c-0.14,1.58-0.278,2.568-0.419,2.964c-0.14,0.395-0.445,0.605-0.919,0.633c-0.53,0.027-0.795-0.383-0.795-1.23v-1.066     c0-0.875-0.164-1.709-0.491-2.502c-0.519-1.23-1.569-2.051-3.152-2.461s-4.49-0.615-8.721-0.615h-6.428     c-1.692,0-2.784,0.213-3.275,0.639C225.684,589.726,225.438,590.665,225.438,592.12z"
   fill="#010101" />
			<path
   id="path89"
   d="M302.835,610.135l8.225,19.458c0.899,2.163,1.554,3.243,1.963,3.243c0.354,0,0.804-0.631,1.349-1.892     c0.164-0.412,0.504-1.165,1.022-2.263c3.597-7.978,6.942-16.032,10.035-24.161c3.093-8.13,4.64-12.921,4.64-14.375     c0-1.288-1.162-2.18-3.486-2.673c-1.285-0.295-1.928-0.737-1.928-1.328c0-0.563,0.397-0.846,1.192-0.846     c0.138,0,0.384,0.014,0.74,0.041c1.151,0.082,2.796,0.123,4.936,0.123c2.494,0,4.358-0.074,5.593-0.224     c0.932-0.124,1.576-0.187,1.933-0.187c0.604,0,0.905,0.296,0.905,0.885c0,0.483-0.396,0.886-1.189,1.207     c-1.121,0.438-1.955,1.26-2.502,2.463l-2.256,4.884c-0.93,2.025-2.379,5.337-4.348,9.933c-2.023,4.844-3.568,8.47-4.635,10.878     l-4.922,11.123l-3.281,7.758l-1.969,4.474l-0.902,2.093l-0.615,1.231c-0.704,1.505-1.405,2.258-2.109,2.258     c-0.596,0-1.178-0.655-1.745-1.967l-10.198-23.762l-10.27,24.459c-0.487,1.174-0.987,1.748-1.502,1.721     c-0.703-0.027-1.488-1.095-2.354-3.202l-16.939-40.552l-1.066-2.709c-1.477-3.721-2.769-6.307-3.876-7.757     s-2.509-2.368-4.204-2.751l-1.682-0.369c-0.574-0.133-0.861-0.469-0.861-1.004c0-0.644,0.411-0.965,1.233-0.965     c0.246,0,0.589,0.027,1.027,0.082c1.068,0.137,2.438,0.205,4.11,0.205l5.057,0.041l3.452-0.082     c1.398-0.109,2.248-0.164,2.549-0.164c0.74,0,1.11,0.335,1.11,1.006c0,0.509-0.301,0.857-0.902,1.045     c-1.723,0.493-2.584,1.287-2.584,2.384c0,1.342,0.994,4.301,2.982,8.875c0.926,2.082,2.396,5.63,4.412,10.643     c1.962,4.877,3.351,8.246,4.168,10.108l4.004,8.876c0.437,0.986,0.735,1.645,0.898,1.973l0.49,0.862     c0.3,0.604,0.531,0.904,0.695,0.904c0.19,0,0.478-0.438,0.859-1.313l0.205-0.492l7.044-16.503     c-0.574-1.37-0.916-2.193-1.025-2.468l-3.65-8.553l-3.405-7.978c-1.285-2.905-2.27-4.756-2.953-5.551s-1.764-1.288-3.24-1.48     c-2.242-0.296-3.336-0.792-3.281-1.49c0.027-0.537,0.603-0.807,1.727-0.807l1.603,0.041l7.977,0.246     c1.15,0,2.507-0.082,4.069-0.246c0.904-0.082,1.493-0.123,1.768-0.123c0.958,0,1.438,0.322,1.438,0.966     c0,0.43-0.451,0.818-1.354,1.167c-1.313,0.549-1.969,1.427-1.969,2.634c0,1.042,0.491,2.729,1.473,5.062l4.337,10.287     c0.358-0.85,0.635-1.481,0.828-1.894c3.149-7.022,4.724-11.59,4.724-13.702c0-1.262-0.902-2.058-2.707-2.387     c-1.313-0.241-1.969-0.684-1.969-1.328c0-0.536,0.477-0.805,1.432-0.805c0.163,0,0.694,0.021,1.595,0.065     c1.199,0.066,2.604,0.099,4.212,0.099c1.745,0,3.081-0.053,4.008-0.159c0.79-0.085,1.35-0.128,1.677-0.128     c0.817,0,1.227,0.321,1.227,0.965c0,0.457-0.479,0.818-1.436,1.086c-1.039,0.329-1.798,0.821-2.275,1.479     c-0.479,0.657-1.347,2.463-2.604,5.419L302.835,610.135z"
   fill="#010101" />
			<path
   id="path91"
   d="M359.148,584.602c2.926,0,5.4,0.424,7.424,1.271l2.83,1.189c0.246,0.109,0.492,0.164,0.738,0.164     c0.328,0,0.656-0.137,0.984-0.41l0.574-0.492c0.082-0.109,0.232-0.164,0.451-0.164c0.684-0.027,1.025,0.643,1.025,2.01     c0,0.465,0.178,1.846,0.533,4.143l0.656,4.225c0.137,0.902,0.205,1.463,0.205,1.682c0,0.848-0.293,1.271-0.877,1.271     c-0.446,0-0.893-0.658-1.338-1.976c-0.981-2.963-2.979-5.404-5.99-7.325c-3.012-1.92-6.372-2.881-10.079-2.881     c-2.944,0-5.404,0.87-7.381,2.607c-1.977,1.738-2.964,3.907-2.964,6.508c0,2.299,0.642,4.284,1.925,5.954     c1.119,1.424,2.342,2.464,3.666,3.12c1.324,0.658,4.581,1.849,9.77,3.572c10.104,3.308,15.155,8.73,15.155,16.271     c0,5.11-1.859,9.291-5.578,12.543s-8.49,4.877-14.314,4.877c-2.105,0-4.423-0.301-6.952-0.902s-4.382-1.299-5.558-2.092     c-0.492-0.328-0.82-0.677-0.984-1.046s-0.41-1.319-0.738-2.851c-0.055-0.219-0.396-1.463-1.025-3.732     c-0.711-2.461-1.066-4.211-1.066-5.25c0-0.82,0.278-1.217,0.836-1.189c0.502,0.027,0.947,0.699,1.338,2.016     c0.981,3.4,3.054,6.253,6.217,8.557c3.164,2.304,6.6,3.455,10.308,3.455c3.764,0,6.946-1.108,9.552-3.325     c2.604-2.217,3.906-4.913,3.906-8.088c0-3.038-1.201-5.597-3.604-7.677c-1.229-1.068-4.779-2.587-10.649-4.558     c-6.063-2.05-10.357-4.316-12.883-6.804c-2.526-2.486-3.789-5.711-3.789-9.673c0-4.426,1.647-8.033,4.942-10.82     S353.953,584.602,359.148,584.602z"
   fill="#010101" />
			<path
   id="path93"
   d="M422.23,584.602c2.926,0,5.4,0.424,7.424,1.271l2.83,1.189c0.246,0.109,0.492,0.164,0.738,0.164     c0.328,0,0.656-0.137,0.984-0.41l0.574-0.492c0.082-0.109,0.232-0.164,0.451-0.164c0.684-0.027,1.025,0.643,1.025,2.01     c0,0.465,0.178,1.846,0.533,4.143l0.656,4.225c0.137,0.902,0.205,1.463,0.205,1.682c0,0.848-0.293,1.271-0.877,1.271     c-0.446,0-0.893-0.658-1.338-1.976c-0.981-2.963-2.979-5.404-5.99-7.325c-3.012-1.92-6.372-2.881-10.079-2.881     c-2.944,0-5.404,0.87-7.381,2.607c-1.977,1.738-2.964,3.907-2.964,6.508c0,2.299,0.642,4.284,1.925,5.954     c1.119,1.424,2.342,2.464,3.666,3.12c1.324,0.658,4.581,1.849,9.77,3.572c10.104,3.308,15.155,8.73,15.155,16.271     c0,5.11-1.859,9.291-5.578,12.543s-8.49,4.877-14.314,4.877c-2.105,0-4.423-0.301-6.952-0.902s-4.382-1.299-5.558-2.092     c-0.492-0.328-0.82-0.677-0.984-1.046s-0.41-1.319-0.738-2.851c-0.055-0.219-0.396-1.463-1.025-3.732     c-0.711-2.461-1.066-4.211-1.066-5.25c0-0.82,0.278-1.217,0.836-1.189c0.502,0.027,0.947,0.699,1.338,2.016     c0.981,3.4,3.054,6.253,6.217,8.557c3.164,2.304,6.6,3.455,10.308,3.455c3.764,0,6.946-1.108,9.552-3.325     c2.604-2.217,3.906-4.913,3.906-8.088c0-3.038-1.201-5.597-3.604-7.677c-1.229-1.068-4.779-2.587-10.649-4.558     c-6.063-2.05-10.357-4.316-12.883-6.804c-2.526-2.486-3.789-5.711-3.789-9.673c0-4.426,1.647-8.033,4.942-10.82     S417.035,584.602,422.23,584.602z"
   fill="#010101" />
			<path
   id="path95"
   d="M459.801,592.12v16.548c0,1.263,0.116,2.024,0.349,2.285s0.937,0.391,2.112,0.391h6.316     c2.871,0,5.141-0.164,6.809-0.492c1.477-0.301,2.434-0.697,2.871-1.189s0.834-1.641,1.189-3.445     c0.14-0.684,0.489-1.012,1.049-0.984c0.531,0.027,0.797,0.396,0.797,1.104c0,0.191-0.016,0.491-0.046,0.9     c-0.243,2.646-0.364,5.06-0.364,7.241c0,1.664,0.082,3.314,0.246,4.951c0.055,0.545,0.082,0.94,0.082,1.187     c0,0.682-0.266,1.022-0.797,1.022c-0.588,0-0.938-0.301-1.049-0.902l-0.245-1.148c-0.328-1.832-0.983-3.076-1.965-3.732     c-0.982-0.656-2.647-0.984-4.993-0.984h-9.046c-1.337,0-2.231,0.137-2.681,0.411c-0.451,0.274-0.676,0.822-0.676,1.644     l0.041,1.355v15.12c0,2.328,0.416,3.779,1.249,4.355c0.833,0.575,2.941,0.862,6.328,0.862c10.729,0,17.624-2.42,20.683-7.26     c0.309-0.465,0.616-0.711,0.925-0.738c0.504-0.027,0.757,0.327,0.757,1.063c0,1.771-0.998,3.884-2.994,6.336     c-2.406,2.942-5.441,4.414-9.105,4.414c-0.793,0-1.859-0.055-3.199-0.164c-5.223-0.492-9.543-0.738-12.961-0.738     c-4.785,0-8.162,0.164-10.131,0.492c-1.039,0.191-1.75,0.287-2.133,0.287c-0.875,0-1.313-0.294-1.313-0.883     c0-0.455,0.355-0.775,1.066-0.963l1.559-0.452c1.969-0.547,2.953-2.465,2.953-5.751l0.041-2.67v-34.711     c0-3.916-0.431-6.552-1.292-7.908c-0.861-1.355-2.536-2.033-5.024-2.033c-0.793,0-1.189-0.254-1.189-0.763     c0-0.749,0.615-1.124,1.846-1.124c0.684,0,1.6,0.068,2.748,0.205c3.91,0.438,8.613,0.656,14.109,0.656     c3.336,0,6.289-0.055,8.859-0.164l5.824-0.287c1.613-0.055,2.598-0.109,2.953-0.164c0.738-0.109,1.285-0.164,1.641-0.164     c0.902,0,1.354,0.396,1.354,1.185c0,0.246-0.041,0.56-0.123,0.94c-0.082,0.382-0.191,1.472-0.328,3.27l-0.164,2.411     c-0.14,1.58-0.278,2.568-0.419,2.964c-0.14,0.395-0.445,0.605-0.919,0.633c-0.53,0.027-0.795-0.383-0.795-1.23v-1.066     c0-0.875-0.164-1.709-0.491-2.502c-0.519-1.23-1.569-2.051-3.152-2.461s-4.49-0.615-8.721-0.615h-6.428     c-1.692,0-2.785,0.213-3.275,0.639C460.046,589.726,459.801,590.665,459.801,592.12z"
   fill="#010101" />
			<path
   id="path97"
   d="M523.867,613.588l11.32,16.69l1.313,1.964c3.5,5.127,6.727,7.785,9.68,7.977l1.313,0.083     c0.492,0.028,0.725,0.224,0.697,0.585c-0.027,0.418-0.636,0.794-1.825,1.128s-2.536,0.501-4.04,0.501     c-2.461,0-4.669-0.677-6.624-2.03s-3.944-3.562-5.968-6.624l-10.213-15.586l-0.574-0.902c-0.656-1.121-1.723-1.682-3.199-1.682     h-5.455l-0.902,0.165c-0.328,0.192-0.492,0.631-0.492,1.316v12.84l0.041,1.646c0,2.359,0.116,3.972,0.349,4.835     c0.232,0.864,0.786,1.64,1.661,2.325c1.176,0.934,2.994,1.522,5.455,1.77c0.984,0.107,1.49,0.414,1.518,0.922     c0.055,0.533-0.396,0.801-1.354,0.801c-0.383,0-1.189-0.061-2.42-0.182c-1.121-0.122-2.857-0.183-5.209-0.183L505,641.9     l-2.133,0.041c-0.93,0-2.051,0.068-3.363,0.205c-1.066,0.109-1.805,0.164-2.215,0.164c-0.684,0-1.025-0.28-1.025-0.84     c0-0.4,0.342-0.668,1.025-0.801c2.188-0.41,3.623-1.403,4.307-2.979c0.684-1.574,1.025-4.676,1.025-9.304v-29.495l-0.082-4.271     c0-4.272-1.49-6.655-4.471-7.147l-1.928-0.288c-0.875-0.16-1.313-0.48-1.313-0.963c0-0.562,0.465-0.842,1.395-0.842     c0.219,0,1.176,0.055,2.871,0.164c0.984,0.082,2.201,0.123,3.65,0.123c1.258,0,3.404-0.096,6.439-0.287     c2.188-0.137,4.115-0.205,5.783-0.205c6.289,0,11.033,1.185,14.232,3.552s4.799,5.892,4.799,10.571     C533.998,605.458,530.621,610.221,523.867,613.588z M511.815,612.697h4.644c3.59,0,6.412-0.987,8.468-2.963     c2.055-1.975,3.083-4.678,3.083-8.106c0-3.979-1.397-7.25-4.192-9.815c-2.796-2.564-6.357-3.848-10.688-3.848     c-1.617,0-2.733,0.268-3.35,0.803s-0.925,1.502-0.925,2.9l0.041,1.358v16.708c0,1.29,0.171,2.106,0.514,2.449     C509.752,612.526,510.554,612.697,511.815,612.697z"
   fill="#010101" />
			<path
   id="path99"
   d="M556.841,595.362l15.769,36.199c0.382,0.904,0.736,1.343,1.064,1.315c0.272,0,0.764-0.78,1.473-2.343     l0.653-1.52l8.994-21.367c3.87-9.176,5.806-15.079,5.806-17.709c0-0.903-0.205-1.54-0.615-1.91s-1.244-0.678-2.502-0.925     c-1.531-0.294-2.283-0.669-2.256-1.124c0.027-0.508,0.479-0.763,1.357-0.763c0.191,0,0.589,0.014,1.192,0.041     c2.029,0.109,3.249,0.164,3.66,0.164h1.687l1.851-0.041h1.028l3.496-0.041c0.548,0,0.822,0.239,0.822,0.716     c0,0.393-0.287,0.688-0.861,0.884c-1.969,0.738-3.459,2.323-4.471,4.755l-1.107,2.664l-20.385,47.748     c-0.567,1.339-1.121,2.009-1.662,2.009c-0.567,0-1.148-0.685-1.742-2.052l-20.795-48.188c-0.984-2.217-1.873-3.763-2.666-4.639     c-0.793-0.875-1.873-1.437-3.24-1.683c-1.422-0.268-2.263-0.462-2.522-0.583c-0.26-0.12-0.39-0.342-0.39-0.663     c0-0.536,0.383-0.805,1.148-0.805c0.219,0,0.615,0.027,1.189,0.082c0.465,0.055,1.846,0.082,4.143,0.082l3.896,0.041l2.748-0.041     c0.574,0,1.449-0.055,2.625-0.164c0.547-0.055,0.93-0.082,1.148-0.082c0.738,0,1.107,0.254,1.107,0.76     c0,0.374-0.273,0.667-0.82,0.881c-1.121,0.411-1.825,0.761-2.112,1.048c-0.287,0.288-0.431,0.788-0.431,1.5     C555.121,590.788,555.694,592.705,556.841,595.362z"
   fill="#010101" />
			<path
   id="path101"
   d="M615.578,597.669v30.751c0,3.837,0.232,6.373,0.697,7.605c0.547,1.397,1.224,2.385,2.03,2.96     c0.807,0.576,2.071,0.987,3.794,1.233c1.367,0.188,2.051,0.522,2.051,1.004c0,0.644-0.424,0.965-1.271,0.965     c-0.41,0-0.93-0.046-1.559-0.137c-0.848-0.121-2.297-0.183-4.348-0.183l-5.947-0.091l-4.84,0.287     c-0.793,0.082-1.449,0.123-1.969,0.123c-0.738,0-1.107-0.28-1.107-0.842c0-0.48,0.424-0.788,1.271-0.922     c2.078-0.355,3.418-1.075,4.02-2.156c0.602-1.082,0.902-3.361,0.902-6.84v-35.164c0-3.395-0.39-5.682-1.169-6.859     s-2.44-1.972-4.983-2.383c-0.848-0.16-1.285-0.481-1.313-0.963c-0.027-0.589,0.369-0.883,1.189-0.883     c0.219,0,0.465,0.016,0.738,0.046c1.996,0.243,4.648,0.364,7.957,0.364c2.023,0,3.76-0.046,5.209-0.137l2.748-0.228     c0.52-0.03,0.861-0.046,1.025-0.046c0.738,0,1.107,0.255,1.107,0.763c0,0.481-0.355,0.843-1.066,1.083l-2.133,0.822     C616.59,588.611,615.578,591.887,615.578,597.669z"
   fill="#010101" />
			<path
   id="path103"
   d="M680.588,590.467l1.313,9.844l0.123,1.025l-0.123,0.41c-0.137,0.246-0.342,0.383-0.615,0.41     c-0.328,0.027-0.82-0.545-1.477-1.718c-5.118-8.944-12.057-13.417-20.814-13.417c-6.979,0-12.48,2.144-16.504,6.43     s-6.035,10.143-6.035,17.568c0,8.545,2.237,15.528,6.712,20.947s10.229,8.129,17.264,8.129c4.105,0,8.143-1.097,12.11-3.291     c3.969-2.194,6.719-4.854,8.252-7.981c0.711-1.453,1.258-2.194,1.641-2.222c0.438-0.027,0.656,0.234,0.656,0.784l-0.041,0.453     l-0.164,0.907l-0.943,5.029l-0.164,0.742c-0.109,0.711-0.752,1.449-1.928,2.215c-6.316,4.02-13.275,6.029-20.877,6.029     c-8.805,0-15.9-2.609-21.287-7.828c-5.387-5.22-8.08-12.092-8.08-20.617c0-8.524,2.788-15.608,8.366-21.251     s12.577-8.464,20.998-8.464c5.77,0,11.073,1.299,15.913,3.896l1.641,0.861l0.656,0.287l0.697,0.246     c0.137,0,0.342-0.109,0.616-0.328c0.603-0.438,1.013-0.656,1.232-0.656C680.164,588.908,680.451,589.428,680.588,590.467z"
   fill="#010101" />
			<path
   id="path105"
   d="M702.736,592.12v16.548c0,1.263,0.116,2.024,0.349,2.285s0.937,0.391,2.112,0.391h6.316     c2.871,0,5.141-0.164,6.809-0.492c1.477-0.301,2.434-0.697,2.871-1.189s0.834-1.641,1.189-3.445     c0.14-0.684,0.489-1.012,1.049-0.984c0.531,0.027,0.797,0.396,0.797,1.104c0,0.191-0.016,0.491-0.046,0.9     c-0.243,2.646-0.364,5.06-0.364,7.241c0,1.664,0.082,3.314,0.246,4.951c0.055,0.545,0.082,0.94,0.082,1.187     c0,0.682-0.266,1.022-0.797,1.022c-0.588,0-0.938-0.301-1.049-0.902l-0.245-1.148c-0.328-1.832-0.983-3.076-1.965-3.732     c-0.982-0.656-2.647-0.984-4.993-0.984h-9.046c-1.337,0-2.231,0.137-2.681,0.411c-0.451,0.274-0.676,0.822-0.676,1.644     l0.041,1.355v15.12c0,2.328,0.416,3.779,1.249,4.355c0.833,0.575,2.941,0.862,6.328,0.862c10.729,0,17.624-2.42,20.683-7.26     c0.309-0.465,0.616-0.711,0.925-0.738c0.504-0.027,0.757,0.327,0.757,1.063c0,1.771-0.998,3.884-2.994,6.336     c-2.406,2.942-5.441,4.414-9.105,4.414c-0.793,0-1.859-0.055-3.199-0.164c-5.223-0.492-9.543-0.738-12.961-0.738     c-4.785,0-8.162,0.164-10.131,0.492c-1.039,0.191-1.75,0.287-2.133,0.287c-0.875,0-1.313-0.294-1.313-0.883     c0-0.455,0.355-0.775,1.066-0.963l1.559-0.452c1.969-0.547,2.953-2.465,2.953-5.751l0.041-2.67v-34.711     c0-3.916-0.431-6.552-1.292-7.908c-0.861-1.355-2.536-2.033-5.024-2.033c-0.793,0-1.189-0.254-1.189-0.763     c0-0.749,0.615-1.124,1.846-1.124c0.684,0,1.6,0.068,2.748,0.205c3.91,0.438,8.613,0.656,14.109,0.656     c3.336,0,6.289-0.055,8.859-0.164l5.824-0.287c1.613-0.055,2.598-0.109,2.953-0.164c0.738-0.109,1.285-0.164,1.641-0.164     c0.902,0,1.354,0.396,1.354,1.185c0,0.246-0.041,0.56-0.123,0.94c-0.082,0.382-0.191,1.472-0.328,3.27l-0.164,2.411     c-0.14,1.58-0.278,2.568-0.419,2.964c-0.14,0.395-0.445,0.605-0.919,0.633c-0.53,0.027-0.795-0.383-0.795-1.23v-1.066     c0-0.875-0.164-1.709-0.491-2.502c-0.519-1.23-1.569-2.051-3.152-2.461s-4.49-0.615-8.721-0.615h-6.428     c-1.692,0-2.785,0.213-3.275,0.639C702.981,589.726,702.736,590.665,702.736,592.12z"
   fill="#010101" />
		</g>
	</g>
</g>
</svg>