<?xml version="1.0" standalone="no"?>
<!DOCTYPE svg PUBLIC "-//W3C//DTD SVG 20010904//EN"
 "http://www.w3.org/TR/2001/REC-SVG-20010904/DTD/svg10.dtd">
<svg version="1.0" xmlns="http://www.w3.org/2000/svg"
 width="1116.000000pt" height="1578.000000pt" viewBox="0 0 1116.000000 1578.000000"
 preserveAspectRatio="xMidYMid meet">
<metadata>
Created by potrace 1.13, written by Peter Selinger 2001-2015
</metadata>
<g transform="translate(0.000000,1578.000000) scale(0.100000,-0.100000)"
fill="#000000" stroke="none">
<path d="M6686 10654 c-9 -8 -16 -19 -16 -23 0 -17 38 -38 90 -50 136 -33 260
-128 327 -251 30 -56 53 -137 70 -250 20 -139 33 -1540 13 -1540 -12 0 -101
80 -349 311 -80 75 -205 190 -277 255 -120 108 -404 368 -674 617 -58 54 -188
172 -290 265 -102 92 -230 210 -285 262 -301 285 -396 365 -443 377 -55 14
-294 4 -284 -12 7 -11 82 -81 451 -419 85 -78 245 -224 356 -326 111 -102 300
-275 420 -385 121 -110 307 -281 415 -380 107 -99 276 -254 375 -345 99 -90
319 -292 489 -449 170 -157 314 -286 320 -286 8 0 13 311 17 1065 5 919 8
1073 21 1120 38 134 77 201 163 278 58 51 149 102 183 102 11 0 30 8 42 18 19
16 21 22 11 40 -13 25 -34 25 -280 1 -57 -6 -183 -10 -280 -11 -153 0 -254 5
-513 27 -43 3 -61 1 -72 -11z"/>
<path d="M4007 10633 c3 -10 15 -30 25 -45 10 -14 18 -29 18 -32 0 -11 92
-148 123 -183 18 -20 72 -70 122 -112 119 -100 345 -303 345 -310 5 -73 0
-1733 -4 -1796 -8 -99 -39 -270 -59 -325 -26 -71 -57 -118 -106 -162 -47 -43
-164 -108 -192 -108 -23 0 -47 -30 -41 -52 6 -23 -17 -23 347 1 107 8 207 7
350 -2 110 -6 240 -12 290 -12 81 0 90 2 93 19 5 22 -22 46 -50 46 -27 0 -134
55 -201 102 -33 23 -100 120 -127 183 -26 60 -48 175 -59 310 -10 123 -15
1568 -5 1578 3 3 81 -62 172 -146 254 -233 555 -510 812 -747 128 -118 261
-240 296 -270 63 -56 451 -412 599 -550 44 -41 130 -120 190 -176 61 -55 165
-152 233 -215 128 -119 178 -154 206 -143 14 5 16 25 16 129 l0 123 -87 77
c-49 43 -113 101 -143 129 -30 28 -158 146 -284 261 -127 116 -349 320 -496
455 -636 586 -859 791 -922 846 -36 32 -182 167 -325 298 -142 132 -283 262
-313 290 -51 46 -91 83 -311 291 -291 274 -256 251 -402 260 -111 7 -117 6
-110 -12z"/>
</g>
</svg>
